<svg width="385" height="287" viewBox="0 0 385 287" fill="none" xmlns="http://www.w3.org/2000/svg">
<rect x="60.3594" y="48.2227" width="257.407" height="188.992" stroke="#C6C6C6" stroke-width="2" stroke-linejoin="round" stroke-dasharray="3 3"/>
<rect y="0.664062" width="268.26" height="202.564" fill="#F1F1F1"/>
<rect x="6.57031" y="30.2266" width="255.121" height="168.621" fill="white"/>
<rect x="27.373" y="52.125" width="211.323" height="122.633" rx="8" fill="#F1F1F1"/>
<rect x="244.172" y="13.8047" width="16.4241" height="4.37976" rx="2.18988" fill="#C4C4C4"/>
<rect x="43.207" y="90.9336" width="78.8672" height="4.75104" rx="2.37552" fill="white"/>
<rect x="43.207" y="138.445" width="78.8672" height="4.75104" rx="2.37552" fill="white"/>
<rect x="138.227" y="90.9336" width="78.8672" height="4.75104" rx="2.37552" fill="#5236FF"/>
<rect x="43.207" y="83.332" width="78.8672" height="4.75104" rx="2.37552" fill="white"/>
<rect x="43.207" y="130.844" width="78.8672" height="4.75104" rx="2.37552" fill="#FFB422"/>
<rect x="138.227" y="83.332" width="78.8672" height="4.75104" rx="2.37552" fill="white"/>
<rect x="43.207" y="98.5352" width="78.8672" height="4.75104" rx="2.37552" fill="white"/>
<rect x="43.207" y="146.047" width="78.8672" height="4.75104" rx="2.37552" fill="#FFB422"/>
<rect x="138.227" y="98.5352" width="78.8672" height="4.75104" rx="2.37552" fill="white"/>
<rect x="43.207" y="106.137" width="44.6598" height="4.75104" rx="2.37552" fill="#5236FF"/>
<rect x="43.207" y="153.648" width="44.6598" height="4.75104" rx="2.37552" fill="white"/>
<rect x="138.227" y="106.137" width="44.6598" height="4.75104" rx="2.37552" fill="white"/>
<circle cx="9.30766" cy="15.4444" r="2.73735" fill="#C4C4C4"/>
<circle cx="16.9717" cy="15.4444" r="2.73735" fill="#C4C4C4"/>
<circle cx="24.6358" cy="15.4444" r="2.73735" fill="#C4C4C4"/>
<g filter="url(#filter0_d_2_6561)">
<rect x="160.082" y="120.391" width="198.883" height="134.678" rx="15" fill="white"/>
</g>
<line x1="201.689" y1="188.316" x2="320.666" y2="188.316" stroke="#F1F1F1"/>
<line x1="199.99" y1="211.297" x2="318.967" y2="211.297" stroke="#F1F1F1"/>
<line x1="199.99" y1="176.824" x2="318.967" y2="176.824" stroke="#F1F1F1"/>
<line x1="199.99" y1="199.805" x2="318.967" y2="199.805" stroke="#F1F1F1"/>
<line x1="199.99" y1="165.332" x2="318.967" y2="165.332" stroke="#F1F1F1"/>
<line x1="208.988" y1="154.34" x2="208.988" y2="218.263" stroke="#F1F1F1"/>
<line x1="249.781" y1="154.34" x2="249.781" y2="218.263" stroke="#F1F1F1"/>
<line x1="290.572" y1="154.34" x2="290.572" y2="218.263" stroke="#F1F1F1"/>
<line x1="222.586" y1="153.621" x2="222.586" y2="217.544" stroke="#F1F1F1"/>
<line x1="263.377" y1="153.621" x2="263.377" y2="217.544" stroke="#F1F1F1"/>
<line x1="304.17" y1="153.621" x2="304.17" y2="217.544" stroke="#F1F1F1"/>
<line x1="236.184" y1="153.621" x2="236.184" y2="217.544" stroke="#F1F1F1"/>
<line x1="276.975" y1="153.621" x2="276.975" y2="217.544" stroke="#F1F1F1"/>
<line x1="317.768" y1="153.621" x2="317.768" y2="217.544" stroke="#F1F1F1"/>
<rect x="184.787" y="155.547" width="5.70124" height="2.85062" rx="1.42531" fill="#E0DBFF"/>
<rect x="185.738" y="212.559" width="5.70124" height="2.85062" rx="1.42531" fill="#E0DBFF"/>
<rect x="184.787" y="184.055" width="5.70124" height="2.85062" rx="1.42531" fill="#E0DBFF"/>
<rect x="197.141" y="235.363" width="5.70124" height="2.85062" rx="1.42531" transform="rotate(-90 197.141 235.363)" fill="#E0DBFF"/>
<rect x="225.646" y="235.363" width="5.70124" height="2.85062" rx="1.42531" transform="rotate(-90 225.646 235.363)" fill="#E0DBFF"/>
<rect x="254.152" y="235.363" width="5.70124" height="2.85062" rx="1.42531" transform="rotate(-90 254.152 235.363)" fill="#E0DBFF"/>
<rect x="282.658" y="235.363" width="5.70124" height="2.85062" rx="1.42531" transform="rotate(-90 282.658 235.363)" fill="#E0DBFF"/>
<rect x="311.164" y="235.363" width="5.70124" height="2.85062" rx="1.42531" transform="rotate(-90 311.164 235.363)" fill="#E0DBFF"/>
<rect x="184.787" y="169.801" width="5.70124" height="2.85062" rx="1.42531" fill="#E0DBFF"/>
<rect x="185.738" y="226.812" width="5.70124" height="2.85062" rx="1.42531" fill="#E0DBFF"/>
<rect x="184.787" y="198.305" width="5.70124" height="2.85062" rx="1.42531" fill="#E0DBFF"/>
<rect x="211.393" y="235.363" width="5.70124" height="2.85062" rx="1.42531" transform="rotate(-90 211.393 235.363)" fill="#E0DBFF"/>
<rect x="239.898" y="235.363" width="5.70124" height="2.85062" rx="1.42531" transform="rotate(-90 239.898 235.363)" fill="#E0DBFF"/>
<rect x="268.406" y="235.363" width="5.70124" height="2.85062" rx="1.42531" transform="rotate(-90 268.406 235.363)" fill="#E0DBFF"/>
<rect x="296.912" y="235.363" width="5.70124" height="2.85062" rx="1.42531" transform="rotate(-90 296.912 235.363)" fill="#E0DBFF"/>
<rect x="325.418" y="235.363" width="5.70124" height="2.85062" rx="1.42531" transform="rotate(-90 325.418 235.363)" fill="#E0DBFF"/>
<path d="M263.51 194.984C229.668 182.838 207.411 206.837 199.746 221.598C199.407 222.25 199.889 223.015 200.624 223.015H320.618C321.17 223.015 321.618 222.567 321.618 222.015V157.58C321.618 156.391 319.586 156.107 319.2 157.231C312.005 178.141 294.127 205.971 263.51 194.984Z" fill="#FFB422"/>
<path d="M189.539 147.945V232.514H331.595" stroke="#E0DBFF" stroke-width="3"/>
<defs>
<filter id="filter0_d_2_6561" x="144.082" y="109.391" width="240.883" height="176.676" filterUnits="userSpaceOnUse" color-interpolation-filters="sRGB">
<feFlood flood-opacity="0" result="BackgroundImageFix"/>
<feColorMatrix in="SourceAlpha" type="matrix" values="0 0 0 0 0 0 0 0 0 0 0 0 0 0 0 0 0 0 127 0" result="hardAlpha"/>
<feOffset dx="5" dy="10"/>
<feGaussianBlur stdDeviation="10.5"/>
<feComposite in2="hardAlpha" operator="out"/>
<feColorMatrix type="matrix" values="0 0 0 0 0.700272 0 0 0 0 0.700272 0 0 0 0 0.700272 0 0 0 0.25 0"/>
<feBlend mode="normal" in2="BackgroundImageFix" result="effect1_dropShadow_2_6561"/>
<feBlend mode="normal" in="SourceGraphic" in2="effect1_dropShadow_2_6561" result="shape"/>
</filter>
</defs>
</svg>
