<svg width="1614" height="384" viewBox="0 0 1614 384" fill="none" xmlns="http://www.w3.org/2000/svg">
<path d="M369.056 125.171V142.702C391.168 237.794 382.416 287.048 272.389 351.002L230.647 384C364.872 353.808 428.48 281.056 387.732 125.171H369.056Z" fill="url(#paint0_linear_59_8)"/>
<path fill-rule="evenodd" clip-rule="evenodd" d="M268.735 55.1605H300.475V23.3373H302.591V21.2158H304.707V19.0942H307.881H341.738V21.2158H343.854V23.3373H345.97V55.1605H377.71V57.2821H379.826V59.4036H381.942V94.4092H378.768V96.5307H376.652V98.6523H345.97V131.536H343.854V133.658H341.738V135.779H306.823V133.658H304.707V131.536H302.591V98.6523H270.851V96.5307H267.677V94.4092H265.561H264.503V60.4644H266.619V58.3429V57.2821H268.735V55.1605Z" fill="url(#paint1_linear_59_8)"/>
<path d="M275.083 15.9883C176.02 -16.1211 131.098 0.834997 63.4806 60.5407H96.279C151.581 21.6623 185.418 12.5711 253.923 32.9608H275.083V15.9883Z" fill="url(#paint2_linear_59_8)"/>
<path fill-rule="evenodd" clip-rule="evenodd" d="M19.0442 82.7402C8.52639 82.7402 0 91.2888 0 101.834V220.641H50.7846L56.5154 231.249H70.8618L83.5829 153.812L86.757 149.569L92.047 146.387H96.2791L98.3951 148.508L100.511 150.63L102.627 154.873L111.333 231.249H125.985L131.193 197.304L133.31 192L136.484 189.878L139.658 188.818L142.832 189.878L146.006 192L148.122 196.243L159.76 223.823L161.876 225.945L163.992 224.884L165.05 222.762L179.862 180.331L183.036 177.149L186.21 176.088L188.326 177.149L191.5 180.331L213.718 220.641H283.547V218.519C283.547 143.531 222.915 82.7402 148.122 82.7402H19.0442ZM200.811 231.249L189.384 212.155L187.268 210.033L185.152 211.094L179.67 231.249H200.811ZM93.3205 231.249L92.047 222.762L89.931 220.641L87.815 222.762L86.5238 231.249H93.3205Z" fill="#16BFF8"/>
<path fill-rule="evenodd" clip-rule="evenodd" d="M0 238.674V369.15C0 377.351 6.63164 384 14.8122 384H148.122C222.915 384 283.547 323.21 283.547 248.221V238.674H205.254L200.811 231.249H179.67L172.456 257.768L171.398 260.951L169.282 264.133L167.166 266.255L163.992 267.315L160.818 266.255L157.644 262.011L155.528 257.768L144.948 235.492L142.832 233.371L140.716 235.492L125.903 339.448L122.729 344.752C118.497 351.116 115.363 348.004 110.033 342.63L93.3205 231.249H86.5238L78.2929 285.348L73.0028 288.531H68.7708L64.5387 285.348L40.2045 238.674H0ZM70.8618 231.249L68.7708 243.978C68.418 244.685 67.078 246.1 64.5387 246.1L56.5154 231.249H70.8618ZM111.333 231.249L115.323 266.255L117.439 268.376H118.497L120.613 266.255L125.985 231.249H111.333Z" fill="#5A80FD"/>
<mask id="mask0_59_8" style="mask-type:alpha" maskUnits="userSpaceOnUse" x="0" y="82" width="284" height="150">
<path fill-rule="evenodd" clip-rule="evenodd" d="M19.0442 82.7402C8.52639 82.7402 0 91.2888 0 101.834V220.641H50.7846L56.5154 231.249H70.8618L83.5829 153.812L86.757 149.569L92.047 146.387H96.2791L98.3951 148.508L100.511 150.63L102.627 154.873L111.333 231.249H125.985L131.193 197.304L133.31 192L136.484 189.878L139.658 188.818L142.832 189.878L146.006 192L148.122 196.243L159.76 223.823L161.876 225.945L163.992 224.884L165.05 222.762L179.862 180.331L183.036 177.149L186.21 176.088L188.326 177.149L191.5 180.331L213.718 220.641H283.547V218.519C283.547 143.531 222.915 82.7402 148.122 82.7402H19.0442ZM200.811 231.249L189.384 212.155L187.268 210.033L185.152 211.094L179.67 231.249H200.811ZM93.3205 231.249L92.047 222.762L89.931 220.641L87.815 222.762L86.5238 231.249H93.3205Z" fill="#16BFF8"/>
</mask>
<g mask="url(#mask0_59_8)">
<path d="M101.569 210.033H80.4086V231.249H101.569V210.033Z" fill="#5A80FD"/>
<path d="M205.254 207.912H175.63V239.735H205.254V207.912Z" fill="#5A80FD"/>
</g>
<mask id="mask1_59_8" style="mask-type:alpha" maskUnits="userSpaceOnUse" x="0" y="231" width="284" height="153">
<path fill-rule="evenodd" clip-rule="evenodd" d="M0 238.674V369.149C0 377.351 6.63164 384 14.8122 384H148.122C222.915 384 283.547 323.209 283.547 248.221V238.674H205.254L200.811 231.249H179.67L172.456 257.768L171.398 260.95L169.282 264.133L167.166 266.254L163.992 267.315L160.818 266.254L157.644 262.011L155.528 257.768L144.948 235.492L142.832 233.37L140.716 235.492L125.903 339.447L122.729 344.751C118.497 351.116 115.363 348.004 110.033 342.63L93.3205 231.249H86.5238L78.2929 285.348L73.0028 288.53H68.7708L64.5387 285.348L40.2045 238.674H0ZM70.8618 231.249L68.7708 243.978C68.418 244.684 67.078 246.099 64.5387 246.099L56.5154 231.249H70.8618ZM111.333 231.249L115.323 266.254L117.439 268.376H118.497L120.613 266.254L125.985 231.249H111.333Z" fill="#6784FF"/>
</mask>
<g mask="url(#mask1_59_8)">
<path d="M78.2928 216.398H48.6685V250.343H78.2928V216.398Z" fill="#16BFF8"/>
<path d="M131.193 224.884H107.917V271.558H131.193V224.884Z" fill="#16BFF8"/>
</g>
<mask id="mask2_59_8" style="mask-type:alpha" maskUnits="userSpaceOnUse" x="0" y="207" width="284" height="178">
<path fill-rule="evenodd" clip-rule="evenodd" d="M0 238.674V369.15C0 377.351 6.63164 384 14.8122 384H148.122C222.915 384 283.547 323.21 283.547 248.221V238.674H205.254L200.811 231.249H179.67L172.456 257.768L171.398 260.951L169.282 264.133L167.166 266.255L163.992 267.315L160.818 266.255L157.644 262.011L155.528 257.768L144.948 235.492L142.832 233.371L140.716 235.492L125.903 339.448L122.729 344.752C118.497 351.116 115.363 348.004 110.033 342.63L93.3205 231.249H86.5238L78.2929 285.348L73.0028 288.531H68.7708L64.5387 285.348L40.2045 238.674H0ZM70.8618 231.249L68.7708 243.978C68.418 244.685 67.078 246.1 64.5387 246.1L56.5154 231.249H70.8618ZM111.333 231.249L115.323 266.255L117.439 268.376H118.497L120.613 266.255L125.985 231.249H111.333Z" fill="#5981FD"/>
<mask id="mask3_59_8" style="mask-type:alpha" maskUnits="userSpaceOnUse" x="0" y="82" width="284" height="150">
<path fill-rule="evenodd" clip-rule="evenodd" d="M19.0442 82.7402C8.52639 82.7402 0 91.2888 0 101.834V220.641H50.7846L56.5154 231.249H70.8618L83.5829 153.812L86.757 149.569L92.047 146.387H96.2791L98.3951 148.508L100.511 150.63L102.627 154.873L111.333 231.249H125.985L131.193 197.304L133.31 192L136.484 189.878L139.658 188.818L142.832 189.878L146.006 192L148.122 196.243L159.76 223.823L161.876 225.945L163.992 224.884L165.05 222.762L179.862 180.331L183.036 177.149L186.21 176.088L188.326 177.149L191.5 180.331L213.718 220.641H283.547V218.519C283.547 143.531 222.915 82.7402 148.122 82.7402H19.0442ZM200.811 231.249L189.384 212.155L187.268 210.033L185.152 211.094L179.67 231.249H200.811ZM93.3205 231.249L92.047 222.762L89.931 220.641L87.815 222.762L86.5238 231.249H93.3205Z" fill="#16BFF8"/>
</mask>
<g mask="url(#mask3_59_8)">
<path d="M101.569 210.033H80.4086V231.249H101.569V210.033Z" fill="#5981FD"/>
<path d="M205.254 207.912H175.63V239.735H205.254V207.912Z" fill="#5981FD"/>
</g>
</mask>
<g mask="url(#mask2_59_8)">
<path d="M-6.34808 350.055C-6.34808 350.055 74.7206 349.935 168.224 350.055C252.05 350.164 283.543 246.182 285.955 224.553L285.663 220.641C286.125 220.656 286.232 222.056 285.955 224.553L296.243 362.785L289.895 420.067C249.337 426.077 164.838 438.1 151.296 438.1H15.8702C4.02043 438.1 -26.4503 413.348 -40.2045 400.973L-6.34808 350.055Z" fill="#6785FD"/>
</g>
<path d="M52.9006 143.565V220.141C52.9006 222.561 53.4834 224.944 54.5994 227.089L63.4767 244.148C64.4596 246.036 67.0719 246.251 68.3466 244.545C68.6252 244.174 68.8102 243.739 68.8857 243.278L83.1054 156.72C83.4192 154.81 84.188 153.004 85.3463 151.455C86.278 150.21 87.4418 149.158 88.7732 148.357L90.5953 147.261C91.5452 146.689 92.6324 146.387 93.7403 146.387C95.9602 146.387 98.0058 147.594 99.0839 149.54L101.295 153.53C102.175 155.117 102.735 156.862 102.945 158.666L115.208 264.203C115.283 264.844 115.572 265.442 116.028 265.9L116.199 266.072C117.388 267.265 119.367 267.067 120.3 265.665C120.507 265.355 120.646 265.003 120.709 264.636L132.021 198.647C132.174 197.755 132.421 196.88 132.756 196.039L133.496 194.184C134.062 192.768 135.074 191.575 136.379 190.79C138.421 189.562 140.947 189.465 143.077 190.532L143.483 190.736C145.113 191.553 146.406 192.917 147.136 194.591L159.612 223.181C160.241 224.624 162.016 225.145 163.321 224.271C163.757 223.981 164.092 223.561 164.279 223.068L180.376 180.703C180.735 179.759 181.288 178.902 182.001 178.188L182.851 177.336C183.647 176.537 184.727 176.089 185.853 176.089C186.772 176.089 187.666 176.388 188.4 176.94L189.769 177.97C190.908 178.826 191.838 179.931 192.488 181.201L207.942 211.414C210.839 217.079 216.634 220.641 222.982 220.641H283.547C284.605 220.641 231.745 132.077 198.906 127.293C173.767 123.632 101.551 125.576 69.0694 126.69C60.0026 127 52.9006 134.47 52.9006 143.565Z" fill="#02B3F7"/>
<path d="M501.525 267.438C549.894 267.23 569.938 242.697 569.938 189.948C569.938 136.969 549.894 116.779 501.525 116.779H471.469C459.754 116.779 453.356 123.502 453.356 136.101C453.356 201.882 453.151 229.458 452.929 249.214C452.929 260.943 459.327 267.23 471.042 267.23L501.525 267.438ZM492.995 237.277C492.791 229.893 492.791 221.865 492.791 214.046C492.791 176.914 492.791 161.732 492.995 146.733H500.671C523.679 146.733 530.503 158.69 530.503 191.891C530.503 220.998 522.825 237.277 500.671 237.277H492.995Z" fill="#373737"/>
<path d="M643.024 269.838C679.251 269.838 696.938 249.215 696.938 207.529C696.938 166.056 679.251 145.224 643.024 145.224C606.37 145.224 588.256 166.056 588.256 207.529C588.256 249.215 606.37 269.838 643.024 269.838ZM643.024 243.359C632.159 243.359 624.685 236.41 624.685 207.529C624.685 181.051 629.6 171.703 643.024 171.703C655.389 171.703 660.509 181.051 660.509 207.529C660.509 236.41 653.035 243.359 643.024 243.359Z" fill="#373737"/>
<path d="M767.049 269.403C792.842 269.403 808.397 259.411 813.513 240.525C816.499 229.458 809.452 222.736 799.236 222.736C788.575 222.736 787.072 229.023 780.272 238.353C777.71 241.622 773.447 242.924 767.476 242.924C756.187 242.924 748.713 236.18 748.713 207.738C748.713 182.791 753.83 174.102 767.476 174.102C774.929 174.102 778.769 176.048 780.9 180.619C785.367 191.251 788.148 197.106 799.236 197.106C809.879 197.106 816.926 189.949 814.142 177.785C809.247 156.725 794.324 145.224 768.104 145.224C730.6 145.224 712.282 166.283 712.282 207.738C712.282 248.985 729.118 269.403 767.049 269.403Z" fill="#373737"/>
<path d="M890.226 240.96C879.993 241.186 875.525 235.313 875.525 222.735C875.525 211.438 875.299 198.634 875.726 186.244C875.726 182.355 875.952 178.651 875.952 174.742L892.562 174.536C903.223 174.536 908.971 169.756 908.971 160.862C908.971 151.946 902.595 147.167 890.854 147.167H875.952V128.074C875.952 116.572 868.051 111.566 856.131 115.476C846.098 118.744 841.204 125.467 841.204 136.328C841.204 140.01 841.43 143.485 841.43 147.167H832.473C826.707 147.167 823.295 152.173 823.295 161.067C823.295 169.965 829.689 174.968 841.43 174.968H841.631V186.244C841.631 200.145 841.631 214.254 841.43 227.059C840.777 258.544 857.835 269.837 884.256 269.837C889.15 269.837 894.066 269.402 898.329 268.535C907.691 266.589 911.325 259.41 910.471 250.081C909.621 241.186 902.595 240.524 890.226 240.96Z" fill="#373737"/>
<path d="M976.742 269.838C1012.97 269.838 1030.66 249.215 1030.66 207.529C1030.66 166.056 1012.97 145.224 976.742 145.224C940.088 145.224 921.975 166.056 921.975 207.529C921.975 249.215 940.088 269.838 976.742 269.838ZM976.742 243.359C965.877 243.359 958.407 236.41 958.407 207.529C958.407 181.051 963.319 171.703 976.742 171.703C989.111 171.703 994.228 181.051 994.228 207.529C994.228 236.41 986.754 243.359 976.742 243.359Z" fill="#373737"/>
<path d="M1118.46 145.431C1117.18 145.225 1115.47 144.997 1113.14 144.997C1099.06 144.997 1089.26 157.595 1085.84 175.405L1085.22 174.97V160.863C1085.22 151.741 1079.02 146.962 1067.95 146.962C1056.86 146.962 1050.69 153.478 1050.69 165.413C1050.89 179.314 1051.12 192.762 1051.12 207.099C1051.12 221.431 1050.89 234.879 1050.69 248.78C1050.69 260.718 1057.09 267.231 1068.81 267.231H1069.43C1081.38 267.231 1087.55 260.509 1087.12 248.345C1086.92 239.224 1086.7 230.329 1086.7 221.431C1086.7 216.86 1086.92 211.875 1086.92 207.099V201.884C1090.76 190.155 1097.36 183.868 1106.74 183.868C1109.93 183.868 1112.49 184.299 1115.27 185.17C1120.59 187.116 1127.19 184.094 1129.97 172.801C1131.25 167.794 1131.45 162.601 1129.97 157.595C1127.19 149.134 1122.3 146.3 1118.46 145.431Z" fill="#373737"/>
<path d="M1187.94 269.838C1222.03 269.838 1239.92 256.372 1239.92 229.663C1239.92 181.694 1175.57 207.303 1175.57 180.824C1175.57 174.102 1178.98 170.192 1190.49 170.192C1196.67 170.192 1200.71 171.268 1203.06 173.667C1209.46 181.051 1210.52 186.471 1220.53 186.471H1221.38C1231.42 186.471 1239.07 179.749 1235.66 168.02C1230.99 152.815 1216.06 145.224 1190.49 145.224C1157.03 145.224 1140.4 157.387 1140.4 182.126C1140.4 233.141 1204.55 206.436 1204.55 234.443C1204.55 240.96 1199.86 245.737 1186.43 245.737C1179.41 245.737 1175.35 244.661 1173.21 241.827C1167.04 233.576 1166.19 227.926 1155.95 227.926H1155.32C1145.31 227.926 1137.41 234.878 1141.25 246.816C1145.94 262.019 1160.44 269.838 1187.94 269.838Z" fill="#373737"/>
<path d="M1275.27 269.403C1291.25 269.403 1296.16 264.418 1296.16 248.118C1296.16 231.836 1291.25 226.851 1275.27 226.851C1259.29 226.851 1254.39 231.836 1254.39 248.118C1254.39 264.418 1259.29 269.403 1275.27 269.403Z" fill="#49BCE3"/>
<path d="M1487.72 248.553C1487.5 229.023 1487.07 210.777 1487.5 195.595C1488.35 159.766 1477.06 145.224 1454.68 145.224C1438.27 145.224 1425.7 152.381 1417.6 167.585H1416.97C1412.28 151.947 1402.27 145.224 1386.92 145.224C1370.51 145.224 1357.94 152.381 1349.84 167.585H1349.61C1349.84 163.47 1349.84 159.994 1350.04 157.16C1350.04 150.643 1343.44 146.961 1331.72 146.961C1320 146.961 1313.61 153.477 1313.81 165.412C1314.04 179.313 1314.24 192.762 1314.24 207.098C1314.24 221.43 1314.04 234.878 1313.81 248.779C1313.61 260.717 1320 267.23 1331.72 267.23H1333.2C1344.92 267.23 1351.32 260.717 1351.12 248.779C1351.12 234.878 1350.89 221.43 1351.12 207.098V189.078C1354.73 181.259 1360.92 176.709 1369 176.479C1378.61 176.274 1383.5 181.051 1383.5 195.16C1383.5 210.137 1383.28 228.588 1383.08 248.553C1383.08 260.717 1389.47 267.23 1401.19 267.23H1401.84C1413.56 267.23 1419.96 260.717 1419.96 248.553C1419.73 229.023 1419.31 210.777 1419.73 195.595V187.546C1423.37 180.619 1429.11 176.709 1436.79 176.479C1446.38 176.274 1451.27 181.051 1451.27 195.16C1451.27 210.137 1451.07 228.588 1450.84 248.553C1450.84 260.717 1457.24 267.23 1468.96 267.23H1469.61C1481.32 267.23 1487.72 260.717 1487.72 248.553Z" fill="#373737"/>
<path d="M1544.6 269.403C1556.54 269.403 1568.05 265.288 1576.58 256.807C1576.78 258.544 1577.01 260.282 1577.64 262.019C1578.49 265.493 1584.24 267.23 1595.12 267.23H1597.03C1608.55 267.23 1614.52 260.508 1613.87 248.344C1613.24 233.576 1613.24 214.687 1613.24 188.643C1613.24 159.559 1597.46 145.224 1565.7 145.224C1534.59 145.224 1518.18 153.684 1513.29 170.628C1509.87 182.561 1518.6 189.514 1530.55 189.514H1532.68C1543.12 189.514 1543.97 183.658 1550.14 174.102C1552.7 170.192 1557.39 168.66 1562.94 168.66C1572.32 168.66 1576.58 173.44 1576.58 189.284V196.671C1528.62 195.366 1506.67 209.475 1506.67 236.616C1506.67 259.411 1523.5 269.403 1544.6 269.403ZM1555.91 244.87C1545.88 244.87 1540.56 239.014 1540.56 230.76C1540.56 216.859 1557.62 214.482 1577.01 214.046V233.576C1572.09 240.752 1565.5 244.87 1555.91 244.87Z" fill="#373737"/>
<defs>
<linearGradient id="paint0_linear_59_8" x1="384.058" y1="125.171" x2="263.993" y2="378.454" gradientUnits="userSpaceOnUse">
<stop stop-color="#755FFF"/>
<stop offset="1" stop-color="#5786FF"/>
</linearGradient>
<linearGradient id="paint1_linear_59_8" x1="323.223" y1="19.0942" x2="323.223" y2="135.779" gradientUnits="userSpaceOnUse">
<stop stop-color="#2D9CF8"/>
<stop offset="1" stop-color="#5981FD"/>
</linearGradient>
<linearGradient id="paint2_linear_59_8" x1="275.083" y1="18.0332" x2="67.6674" y2="61.3082" gradientUnits="userSpaceOnUse">
<stop stop-color="#47CAFF"/>
<stop offset="1" stop-color="#00B6FF"/>
</linearGradient>
</defs>
</svg>
