<svg width="417" height="277" viewBox="0 0 417 277" fill="none" xmlns="http://www.w3.org/2000/svg">
<rect x="39.6406" y="50.6406" width="257.501" height="174.285" stroke="#C6C6C6" stroke-width="2" stroke-linejoin="round" stroke-dasharray="3 3"/>
<rect x="78.0586" y="0.367188" width="268.26" height="202.564" fill="#F1F1F1"/>
<rect x="84.6289" y="29.9297" width="255.121" height="168.621" fill="white"/>
<rect x="105.432" y="51.8281" width="211.323" height="122.633" rx="8" fill="#F1F1F1"/>
<rect x="322.23" y="13.5078" width="16.4241" height="4.37976" rx="2.18988" fill="#C4C4C4"/>
<rect x="201.787" y="130.664" width="47.0824" height="4.37976" rx="2.18988" fill="white"/>
<rect x="117.477" y="72.6328" width="47.0824" height="4.37976" rx="2.18988" fill="white"/>
<rect x="258.725" y="130.664" width="47.0824" height="4.37976" rx="2.18988" fill="white"/>
<rect x="201.787" y="138.328" width="47.0824" height="4.37976" rx="2.18988" fill="white"/>
<rect x="117.477" y="80.2969" width="47.0824" height="4.37976" rx="2.18988" fill="white"/>
<rect x="258.725" y="138.328" width="47.0824" height="4.37976" rx="2.18988" fill="white"/>
<rect x="201.787" y="145.992" width="26.2786" height="4.37976" rx="2.18988" fill="white"/>
<rect x="117.477" y="87.9609" width="26.2786" height="4.37976" rx="2.18988" fill="white"/>
<rect x="258.725" y="145.992" width="26.2786" height="4.37976" rx="2.18988" fill="white"/>
<circle cx="87.3663" cy="15.1475" r="2.73735" fill="#C4C4C4"/>
<circle cx="95.0303" cy="15.1475" r="2.73735" fill="#C4C4C4"/>
<circle cx="102.694" cy="15.1475" r="2.73735" fill="#C4C4C4"/>
<g filter="url(#filter0_d_2_6511)">
<rect x="16.7422" y="110.957" width="167.526" height="134.678" rx="15" fill="white"/>
</g>
<rect x="34.2617" y="141.617" width="130.298" height="19.7089" rx="4" fill="#EEEEEE"/>
<rect x="34.2617" y="183.223" width="130.298" height="19.7089" rx="4" fill="#EEEEEE"/>
<rect x="34.2617" y="213.883" width="41.6077" height="19.7089" rx="4" fill="#5236FF"/>
<path d="M35.1577 133.226C35.0691 133.226 34.9991 133.201 34.9477 133.149C34.8964 133.093 34.8707 133.021 34.8707 132.932V128.536C34.8707 128.452 34.8964 128.385 34.9477 128.333C35.0037 128.282 35.0761 128.256 35.1647 128.256H36.8237C37.3417 128.256 37.7431 128.382 38.0277 128.634C38.3171 128.886 38.4617 129.243 38.4617 129.705C38.4617 130.167 38.3171 130.527 38.0277 130.783C37.7384 131.04 37.3371 131.168 36.8237 131.168H35.4447V132.932C35.4447 133.021 35.4191 133.093 35.3677 133.149C35.3164 133.201 35.2464 133.226 35.1577 133.226ZM36.7677 130.692C37.5191 130.692 37.8947 130.363 37.8947 129.705C37.8947 129.057 37.5191 128.732 36.7677 128.732H35.4447V130.692H36.7677ZM40.6162 129.698C41.4702 129.698 41.8972 130.146 41.8972 131.042V132.946C41.8972 133.03 41.8716 133.098 41.8202 133.149C41.7736 133.201 41.7082 133.226 41.6242 133.226C41.5402 133.226 41.4726 133.201 41.4212 133.149C41.3699 133.098 41.3442 133.03 41.3442 132.946V132.61C41.2556 132.811 41.1202 132.967 40.9382 133.079C40.7562 133.187 40.5462 133.24 40.3082 133.24C40.0889 133.24 39.8859 133.196 39.6992 133.107C39.5172 133.019 39.3726 132.895 39.2652 132.736C39.1579 132.578 39.1042 132.403 39.1042 132.211C39.1042 131.955 39.1696 131.756 39.3002 131.616C39.4309 131.472 39.6456 131.369 39.9442 131.308C40.2429 131.243 40.6582 131.21 41.1902 131.21H41.3442V130.979C41.3442 130.699 41.2859 130.494 41.1692 130.363C41.0572 130.233 40.8729 130.167 40.6162 130.167C40.2989 130.167 39.9769 130.254 39.6502 130.426C39.5242 130.506 39.4356 130.545 39.3842 130.545C39.3282 130.545 39.2816 130.524 39.2442 130.482C39.2069 130.44 39.1882 130.387 39.1882 130.321C39.1882 130.256 39.2069 130.2 39.2442 130.153C39.2862 130.102 39.3516 130.051 39.4402 129.999C39.6036 129.906 39.7879 129.834 39.9932 129.782C40.2032 129.726 40.4109 129.698 40.6162 129.698ZM40.3852 132.792C40.6652 132.792 40.8939 132.699 41.0712 132.512C41.2532 132.321 41.3442 132.076 41.3442 131.777V131.574H41.2182C40.8076 131.574 40.4949 131.593 40.2802 131.63C40.0656 131.663 39.9116 131.721 39.8182 131.805C39.7296 131.885 39.6852 132.004 39.6852 132.162C39.6852 132.344 39.7506 132.496 39.8812 132.617C40.0166 132.734 40.1846 132.792 40.3852 132.792ZM44.0832 133.24C43.8685 133.24 43.6632 133.215 43.4672 133.163C43.2758 133.112 43.1055 133.04 42.9562 132.946C42.8722 132.89 42.8115 132.839 42.7742 132.792C42.7415 132.741 42.7252 132.68 42.7252 132.61C42.7252 132.55 42.7415 132.501 42.7742 132.463C42.8115 132.421 42.8582 132.4 42.9142 132.4C42.9702 132.4 43.0518 132.435 43.1592 132.505C43.2992 132.589 43.4368 132.657 43.5722 132.708C43.7122 132.755 43.8848 132.778 44.0902 132.778C44.3422 132.778 44.5382 132.734 44.6782 132.645C44.8182 132.557 44.8882 132.428 44.8882 132.26C44.8882 132.158 44.8625 132.076 44.8112 132.015C44.7598 131.95 44.6712 131.894 44.5452 131.847C44.4192 131.796 44.2348 131.745 43.9922 131.693C43.5815 131.605 43.2875 131.486 43.1102 131.336C42.9328 131.187 42.8442 130.984 42.8442 130.727C42.8442 130.527 42.9002 130.349 43.0122 130.195C43.1242 130.041 43.2782 129.92 43.4742 129.831C43.6748 129.743 43.9012 129.698 44.1532 129.698C44.3352 129.698 44.5102 129.724 44.6782 129.775C44.8508 129.822 45.0025 129.89 45.1332 129.978C45.2918 130.09 45.3712 130.207 45.3712 130.328C45.3712 130.389 45.3525 130.44 45.3152 130.482C45.2778 130.524 45.2335 130.545 45.1822 130.545C45.1262 130.545 45.0422 130.506 44.9302 130.426C44.7995 130.342 44.6758 130.277 44.5592 130.23C44.4425 130.184 44.2978 130.16 44.1252 130.16C43.9058 130.16 43.7285 130.209 43.5932 130.307C43.4625 130.405 43.3972 130.536 43.3972 130.699C43.3972 130.802 43.4205 130.886 43.4672 130.951C43.5185 131.012 43.6002 131.068 43.7122 131.119C43.8288 131.166 43.9945 131.213 44.2092 131.259C44.5265 131.329 44.7715 131.406 44.9442 131.49C45.1215 131.574 45.2475 131.677 45.3222 131.798C45.3968 131.92 45.4342 132.074 45.4342 132.26C45.4342 132.554 45.3105 132.792 45.0632 132.974C44.8158 133.152 44.4892 133.24 44.0832 133.24ZM47.4464 133.24C47.2318 133.24 47.0264 133.215 46.8304 133.163C46.6391 133.112 46.4688 133.04 46.3194 132.946C46.2354 132.89 46.1748 132.839 46.1374 132.792C46.1048 132.741 46.0884 132.68 46.0884 132.61C46.0884 132.55 46.1048 132.501 46.1374 132.463C46.1748 132.421 46.2214 132.4 46.2774 132.4C46.3334 132.4 46.4151 132.435 46.5224 132.505C46.6624 132.589 46.8001 132.657 46.9354 132.708C47.0754 132.755 47.2481 132.778 47.4534 132.778C47.7054 132.778 47.9014 132.734 48.0414 132.645C48.1814 132.557 48.2514 132.428 48.2514 132.26C48.2514 132.158 48.2258 132.076 48.1744 132.015C48.1231 131.95 48.0344 131.894 47.9084 131.847C47.7824 131.796 47.5981 131.745 47.3554 131.693C46.9448 131.605 46.6508 131.486 46.4734 131.336C46.2961 131.187 46.2074 130.984 46.2074 130.727C46.2074 130.527 46.2634 130.349 46.3754 130.195C46.4874 130.041 46.6414 129.92 46.8374 129.831C47.0381 129.743 47.2644 129.698 47.5164 129.698C47.6984 129.698 47.8734 129.724 48.0414 129.775C48.2141 129.822 48.3658 129.89 48.4964 129.978C48.6551 130.09 48.7344 130.207 48.7344 130.328C48.7344 130.389 48.7158 130.44 48.6784 130.482C48.6411 130.524 48.5968 130.545 48.5454 130.545C48.4894 130.545 48.4054 130.506 48.2934 130.426C48.1628 130.342 48.0391 130.277 47.9224 130.23C47.8058 130.184 47.6611 130.16 47.4884 130.16C47.2691 130.16 47.0918 130.209 46.9564 130.307C46.8258 130.405 46.7604 130.536 46.7604 130.699C46.7604 130.802 46.7838 130.886 46.8304 130.951C46.8818 131.012 46.9634 131.068 47.0754 131.119C47.1921 131.166 47.3578 131.213 47.5724 131.259C47.8898 131.329 48.1348 131.406 48.3074 131.49C48.4848 131.574 48.6108 131.677 48.6854 131.798C48.7601 131.92 48.7974 132.074 48.7974 132.26C48.7974 132.554 48.6738 132.792 48.4264 132.974C48.1791 133.152 47.8524 133.24 47.4464 133.24ZM54.2622 129.894C54.3089 129.782 54.3859 129.726 54.4932 129.726C54.5632 129.726 54.6262 129.75 54.6822 129.796C54.7382 129.843 54.7662 129.901 54.7662 129.971C54.7662 130.004 54.7592 130.039 54.7452 130.076L53.5832 133.016C53.5552 133.077 53.5132 133.126 53.4572 133.163C53.4059 133.196 53.3475 133.212 53.2822 133.212C53.2215 133.212 53.1632 133.196 53.1072 133.163C53.0559 133.126 53.0162 133.077 52.9882 133.016L52.0222 130.559L51.0632 133.016C51.0399 133.077 51.0002 133.126 50.9442 133.163C50.8882 133.196 50.8275 133.212 50.7622 133.212C50.7015 133.212 50.6432 133.196 50.5872 133.163C50.5312 133.126 50.4892 133.077 50.4612 133.016L49.2992 130.083C49.2852 130.046 49.2782 130.013 49.2782 129.985C49.2782 129.911 49.3085 129.848 49.3692 129.796C49.4345 129.745 49.5045 129.719 49.5792 129.719C49.6912 129.719 49.7705 129.775 49.8172 129.887L50.7762 132.47L51.7632 129.908C51.7912 129.848 51.8285 129.801 51.8752 129.768C51.9265 129.736 51.9802 129.719 52.0362 129.719C52.0969 129.719 52.1505 129.736 52.1972 129.768C52.2485 129.801 52.2859 129.848 52.3092 129.908L53.2962 132.463L54.2622 129.894ZM56.8658 133.24C56.5438 133.24 56.2591 133.168 56.0118 133.023C55.7691 132.879 55.5801 132.673 55.4448 132.407C55.3141 132.137 55.2488 131.824 55.2488 131.469C55.2488 131.115 55.3141 130.804 55.4448 130.538C55.5801 130.268 55.7691 130.06 56.0118 129.915C56.2591 129.771 56.5438 129.698 56.8658 129.698C57.1878 129.698 57.4724 129.771 57.7198 129.915C57.9671 130.06 58.1561 130.268 58.2868 130.538C58.4221 130.804 58.4898 131.115 58.4898 131.469C58.4898 131.824 58.4221 132.137 58.2868 132.407C58.1561 132.673 57.9671 132.879 57.7198 133.023C57.4724 133.168 57.1878 133.24 56.8658 133.24ZM56.8658 132.771C57.2018 132.771 57.4584 132.662 57.6358 132.442C57.8178 132.218 57.9088 131.894 57.9088 131.469C57.9088 131.054 57.8178 130.734 57.6358 130.51C57.4538 130.282 57.1971 130.167 56.8658 130.167C56.5344 130.167 56.2778 130.282 56.0958 130.51C55.9138 130.734 55.8228 131.054 55.8228 131.469C55.8228 131.889 55.9114 132.211 56.0888 132.435C56.2708 132.659 56.5298 132.771 56.8658 132.771ZM61.0216 129.712C61.2176 129.698 61.3156 129.778 61.3156 129.95C61.3156 130.025 61.2946 130.086 61.2526 130.132C61.2106 130.174 61.1382 130.2 61.0356 130.209L60.8256 130.23C60.5129 130.258 60.2796 130.37 60.1256 130.566C59.9762 130.758 59.9016 130.984 59.9016 131.245V132.946C59.9016 133.04 59.8759 133.11 59.8246 133.156C59.7732 133.203 59.7056 133.226 59.6216 133.226C59.5376 133.226 59.4676 133.203 59.4116 133.156C59.3602 133.105 59.3346 133.035 59.3346 132.946V129.992C59.3346 129.904 59.3626 129.836 59.4186 129.789C59.4746 129.738 59.5422 129.712 59.6216 129.712C59.6962 129.712 59.7592 129.738 59.8106 129.789C59.8619 129.836 59.8876 129.901 59.8876 129.985V130.377C59.9856 130.172 60.1232 130.016 60.3006 129.908C60.4826 129.801 60.6902 129.738 60.9236 129.719L61.0216 129.712ZM64.471 128.221C64.5597 128.221 64.6297 128.247 64.681 128.298C64.7323 128.35 64.758 128.415 64.758 128.494V132.946C64.758 133.03 64.7323 133.098 64.681 133.149C64.6297 133.201 64.5597 133.226 64.471 133.226C64.3823 133.226 64.3123 133.201 64.261 133.149C64.2143 133.098 64.191 133.03 64.191 132.946V132.568C64.0883 132.783 63.9367 132.949 63.736 133.065C63.54 133.182 63.309 133.24 63.043 133.24C62.7443 133.24 62.4807 133.166 62.252 133.016C62.0233 132.867 61.846 132.659 61.72 132.393C61.594 132.123 61.531 131.81 61.531 131.455C61.531 131.105 61.594 130.797 61.72 130.531C61.846 130.265 62.0233 130.06 62.252 129.915C62.4807 129.771 62.7443 129.698 63.043 129.698C63.309 129.698 63.54 129.757 63.736 129.873C63.9367 129.99 64.0883 130.156 64.191 130.37V128.494C64.191 128.41 64.2143 128.345 64.261 128.298C64.3123 128.247 64.3823 128.221 64.471 128.221ZM63.155 132.771C63.4863 132.771 63.7407 132.659 63.918 132.435C64.1 132.207 64.191 131.885 64.191 131.469C64.191 131.054 64.1 130.734 63.918 130.51C63.7407 130.286 63.4863 130.174 63.155 130.174C62.8237 130.174 62.5647 130.286 62.378 130.51C62.196 130.734 62.105 131.049 62.105 131.455C62.105 131.871 62.196 132.195 62.378 132.428C62.5647 132.657 62.8237 132.771 63.155 132.771Z" fill="black"/>
<path d="M36.9637 174.857C36.4971 174.857 36.0934 174.756 35.7527 174.556C35.4121 174.35 35.1484 174.059 34.9617 173.681C34.7797 173.298 34.6887 172.848 34.6887 172.33C34.6887 171.816 34.7797 171.371 34.9617 170.993C35.1484 170.61 35.4121 170.318 35.7527 170.118C36.0934 169.912 36.4971 169.81 36.9637 169.81C37.2764 169.81 37.5704 169.861 37.8457 169.964C38.1257 170.062 38.3684 170.204 38.5737 170.391C38.6484 170.461 38.6857 170.542 38.6857 170.636C38.6857 170.701 38.6671 170.759 38.6297 170.811C38.5924 170.857 38.5481 170.881 38.4967 170.881C38.4407 170.881 38.3731 170.855 38.2937 170.804C38.0557 170.617 37.8387 170.486 37.6427 170.412C37.4514 170.337 37.2297 170.3 36.9777 170.3C36.4364 170.3 36.0187 170.477 35.7247 170.832C35.4354 171.182 35.2907 171.681 35.2907 172.33C35.2907 172.983 35.4354 173.487 35.7247 173.842C36.0187 174.192 36.4364 174.367 36.9777 174.367C37.2251 174.367 37.4467 174.329 37.6427 174.255C37.8387 174.18 38.0557 174.049 38.2937 173.863C38.3731 173.811 38.4407 173.786 38.4967 173.786C38.5481 173.786 38.5924 173.809 38.6297 173.856C38.6671 173.902 38.6857 173.961 38.6857 174.031C38.6857 174.124 38.6484 174.206 38.5737 174.276C38.3684 174.462 38.1257 174.607 37.8457 174.71C37.5704 174.808 37.2764 174.857 36.9637 174.857ZM40.8697 174.85C40.5477 174.85 40.263 174.777 40.0157 174.633C39.773 174.488 39.584 174.283 39.4487 174.017C39.318 173.746 39.2527 173.433 39.2527 173.079C39.2527 172.724 39.318 172.414 39.4487 172.148C39.584 171.877 39.773 171.669 40.0157 171.525C40.263 171.38 40.5477 171.308 40.8697 171.308C41.1917 171.308 41.4763 171.38 41.7237 171.525C41.971 171.669 42.16 171.877 42.2907 172.148C42.426 172.414 42.4937 172.724 42.4937 173.079C42.4937 173.433 42.426 173.746 42.2907 174.017C42.16 174.283 41.971 174.488 41.7237 174.633C41.4763 174.777 41.1917 174.85 40.8697 174.85ZM40.8697 174.381C41.2057 174.381 41.4623 174.271 41.6397 174.052C41.8217 173.828 41.9127 173.503 41.9127 173.079C41.9127 172.663 41.8217 172.344 41.6397 172.12C41.4577 171.891 41.201 171.777 40.8697 171.777C40.5383 171.777 40.2817 171.891 40.0997 172.12C39.9177 172.344 39.8267 172.663 39.8267 173.079C39.8267 173.499 39.9153 173.821 40.0927 174.045C40.2747 174.269 40.5337 174.381 40.8697 174.381ZM45.0535 171.308C45.8701 171.308 46.2785 171.758 46.2785 172.659V174.556C46.2785 174.644 46.2528 174.714 46.2015 174.766C46.1548 174.812 46.0871 174.836 45.9985 174.836C45.9098 174.836 45.8398 174.812 45.7885 174.766C45.7371 174.714 45.7115 174.644 45.7115 174.556V172.694C45.7115 172.376 45.6485 172.145 45.5225 172.001C45.4011 171.856 45.2051 171.784 44.9345 171.784C44.6218 171.784 44.3721 171.879 44.1855 172.071C43.9988 172.262 43.9055 172.521 43.9055 172.848V174.556C43.9055 174.644 43.8798 174.714 43.8285 174.766C43.7818 174.812 43.7141 174.836 43.6255 174.836C43.5368 174.836 43.4668 174.812 43.4155 174.766C43.3641 174.714 43.3385 174.644 43.3385 174.556V171.602C43.3385 171.518 43.3641 171.45 43.4155 171.399C43.4668 171.347 43.5368 171.322 43.6255 171.322C43.7095 171.322 43.7748 171.347 43.8215 171.399C43.8728 171.45 43.8985 171.515 43.8985 171.595V171.952C44.0105 171.742 44.1668 171.583 44.3675 171.476C44.5681 171.364 44.7968 171.308 45.0535 171.308ZM49.928 171.392C50.0073 171.392 50.068 171.413 50.11 171.455C50.152 171.497 50.173 171.553 50.173 171.623V174.556C50.173 174.644 50.145 174.714 50.089 174.766C50.0377 174.812 49.9723 174.836 49.893 174.836C49.809 174.836 49.739 174.812 49.683 174.766C49.6317 174.714 49.606 174.644 49.606 174.556V171.84H48.073V174.556C48.073 174.644 48.045 174.714 47.989 174.766C47.9377 174.812 47.8723 174.836 47.793 174.836C47.709 174.836 47.639 174.812 47.583 174.766C47.5317 174.714 47.506 174.644 47.506 174.556V171.84H47.037C46.9577 171.84 46.8947 171.821 46.848 171.784C46.806 171.742 46.785 171.688 46.785 171.623C46.785 171.553 46.806 171.497 46.848 171.455C46.8947 171.413 46.9577 171.392 47.037 171.392H47.506V171.273C47.506 170.853 47.611 170.524 47.821 170.286C48.031 170.043 48.332 169.905 48.724 169.873L48.892 169.859C49.116 169.84 49.228 169.91 49.228 170.069C49.228 170.204 49.1487 170.281 48.99 170.3L48.822 170.314C48.5747 170.332 48.388 170.412 48.262 170.552C48.136 170.687 48.073 170.892 48.073 171.168V171.392H49.928ZM49.893 169.88C50.0003 169.88 50.089 169.912 50.159 169.978C50.2337 170.043 50.271 170.127 50.271 170.23C50.271 170.337 50.236 170.423 50.166 170.489C50.096 170.554 50.005 170.587 49.893 170.587C49.781 170.587 49.69 170.554 49.62 170.489C49.55 170.423 49.515 170.337 49.515 170.23C49.515 170.127 49.55 170.043 49.62 169.978C49.69 169.912 49.781 169.88 49.893 169.88ZM52.9141 171.322C53.1101 171.308 53.2081 171.387 53.2081 171.56C53.2081 171.634 53.1871 171.695 53.1451 171.742C53.1031 171.784 53.0308 171.809 52.9281 171.819L52.7181 171.84C52.4055 171.868 52.1721 171.98 52.0181 172.176C51.8688 172.367 51.7941 172.593 51.7941 172.855V174.556C51.7941 174.649 51.7685 174.719 51.7171 174.766C51.6658 174.812 51.5981 174.836 51.5141 174.836C51.4301 174.836 51.3601 174.812 51.3041 174.766C51.2528 174.714 51.2271 174.644 51.2271 174.556V171.602C51.2271 171.513 51.2551 171.445 51.3111 171.399C51.3671 171.347 51.4348 171.322 51.5141 171.322C51.5888 171.322 51.6518 171.347 51.7031 171.399C51.7545 171.445 51.7801 171.511 51.7801 171.595V171.987C51.8781 171.781 52.0158 171.625 52.1931 171.518C52.3751 171.41 52.5828 171.347 52.8161 171.329L52.9141 171.322ZM57.4889 171.308C58.2449 171.308 58.6229 171.758 58.6229 172.659V174.556C58.6229 174.644 58.5973 174.714 58.5459 174.766C58.4946 174.812 58.4269 174.836 58.3429 174.836C58.2589 174.836 58.1889 174.812 58.1329 174.766C58.0816 174.714 58.0559 174.644 58.0559 174.556V172.673C58.0559 172.36 57.9999 172.134 57.8879 171.994C57.7759 171.854 57.6009 171.784 57.3629 171.784C57.0783 171.784 56.8543 171.879 56.6909 172.071C56.5276 172.262 56.4459 172.521 56.4459 172.848V174.556C56.4459 174.644 56.4179 174.714 56.3619 174.766C56.3106 174.812 56.2429 174.836 56.1589 174.836C56.0749 174.836 56.0073 174.812 55.9559 174.766C55.9046 174.714 55.8789 174.644 55.8789 174.556V172.673C55.8789 172.36 55.8229 172.134 55.7109 171.994C55.5989 171.854 55.4216 171.784 55.1789 171.784C54.8989 171.784 54.6749 171.879 54.5069 172.071C54.3436 172.262 54.2619 172.521 54.2619 172.848V174.556C54.2619 174.644 54.2363 174.714 54.1849 174.766C54.1336 174.812 54.0659 174.836 53.9819 174.836C53.8979 174.836 53.8279 174.812 53.7719 174.766C53.7206 174.714 53.6949 174.644 53.6949 174.556V171.602C53.6949 171.518 53.7206 171.45 53.7719 171.399C53.8279 171.347 53.8979 171.322 53.9819 171.322C54.0613 171.322 54.1266 171.347 54.1779 171.399C54.2293 171.445 54.2549 171.511 54.2549 171.595V171.931C54.3576 171.73 54.4999 171.576 54.6819 171.469C54.8639 171.361 55.0739 171.308 55.3119 171.308C55.8439 171.308 56.1916 171.532 56.3549 171.98C56.4529 171.774 56.6023 171.611 56.8029 171.49C57.0036 171.368 57.2323 171.308 57.4889 171.308ZM61.8315 174.836C61.7429 174.836 61.6729 174.81 61.6215 174.759C61.5702 174.703 61.5445 174.63 61.5445 174.542V170.146C61.5445 170.062 61.5702 169.994 61.6215 169.943C61.6775 169.891 61.7499 169.866 61.8385 169.866H63.4975C64.0155 169.866 64.4169 169.992 64.7015 170.244C64.9909 170.496 65.1355 170.853 65.1355 171.315C65.1355 171.777 64.9909 172.136 64.7015 172.393C64.4122 172.649 64.0109 172.778 63.4975 172.778H62.1185V174.542C62.1185 174.63 62.0929 174.703 62.0415 174.759C61.9902 174.81 61.9202 174.836 61.8315 174.836ZM63.4415 172.302C64.1929 172.302 64.5685 171.973 64.5685 171.315C64.5685 170.666 64.1929 170.342 63.4415 170.342H62.1185V172.302H63.4415ZM67.2901 171.308C68.1441 171.308 68.5711 171.756 68.5711 172.652V174.556C68.5711 174.64 68.5454 174.707 68.4941 174.759C68.4474 174.81 68.3821 174.836 68.2981 174.836C68.2141 174.836 68.1464 174.81 68.0951 174.759C68.0437 174.707 68.0181 174.64 68.0181 174.556V174.22C67.9294 174.42 67.7941 174.577 67.6121 174.689C67.4301 174.796 67.2201 174.85 66.9821 174.85C66.7627 174.85 66.5597 174.805 66.3731 174.717C66.1911 174.628 66.0464 174.504 65.9391 174.346C65.8317 174.187 65.7781 174.012 65.7781 173.821C65.7781 173.564 65.8434 173.366 65.9741 173.226C66.1047 173.081 66.3194 172.978 66.6181 172.918C66.9167 172.852 67.3321 172.82 67.8641 172.82H68.0181V172.589C68.0181 172.309 67.9597 172.103 67.8431 171.973C67.7311 171.842 67.5467 171.777 67.2901 171.777C66.9727 171.777 66.6507 171.863 66.3241 172.036C66.1981 172.115 66.1094 172.155 66.0581 172.155C66.0021 172.155 65.9554 172.134 65.9181 172.092C65.8807 172.05 65.8621 171.996 65.8621 171.931C65.8621 171.865 65.8807 171.809 65.9181 171.763C65.9601 171.711 66.0254 171.66 66.1141 171.609C66.2774 171.515 66.4617 171.443 66.6671 171.392C66.8771 171.336 67.0847 171.308 67.2901 171.308ZM67.0591 174.402C67.3391 174.402 67.5677 174.308 67.7451 174.122C67.9271 173.93 68.0181 173.685 68.0181 173.387V173.184H67.8921C67.4814 173.184 67.1687 173.202 66.9541 173.24C66.7394 173.272 66.5854 173.331 66.4921 173.415C66.4034 173.494 66.3591 173.613 66.3591 173.772C66.3591 173.954 66.4244 174.105 66.5551 174.227C66.6904 174.343 66.8584 174.402 67.0591 174.402ZM70.757 174.85C70.5423 174.85 70.337 174.824 70.141 174.773C69.9497 174.721 69.7793 174.649 69.63 174.556C69.546 174.5 69.4853 174.448 69.448 174.402C69.4153 174.35 69.399 174.29 69.399 174.22C69.399 174.159 69.4153 174.11 69.448 174.073C69.4853 174.031 69.532 174.01 69.588 174.01C69.644 174.01 69.7257 174.045 69.833 174.115C69.973 174.199 70.1107 174.266 70.246 174.318C70.386 174.364 70.5587 174.388 70.764 174.388C71.016 174.388 71.212 174.343 71.352 174.255C71.492 174.166 71.562 174.038 71.562 173.87C71.562 173.767 71.5363 173.685 71.485 173.625C71.4337 173.559 71.345 173.503 71.219 173.457C71.093 173.405 70.9087 173.354 70.666 173.303C70.2553 173.214 69.9613 173.095 69.784 172.946C69.6067 172.796 69.518 172.593 69.518 172.337C69.518 172.136 69.574 171.959 69.686 171.805C69.798 171.651 69.952 171.529 70.148 171.441C70.3487 171.352 70.575 171.308 70.827 171.308C71.009 171.308 71.184 171.333 71.352 171.385C71.5247 171.431 71.6763 171.499 71.807 171.588C71.9657 171.7 72.045 171.816 72.045 171.938C72.045 171.998 72.0263 172.05 71.989 172.092C71.9517 172.134 71.9073 172.155 71.856 172.155C71.8 172.155 71.716 172.115 71.604 172.036C71.4733 171.952 71.3497 171.886 71.233 171.84C71.1163 171.793 70.9717 171.77 70.799 171.77C70.5797 171.77 70.4023 171.819 70.267 171.917C70.1363 172.015 70.071 172.145 70.071 172.309C70.071 172.411 70.0943 172.495 70.141 172.561C70.1923 172.621 70.274 172.677 70.386 172.729C70.5027 172.775 70.6683 172.822 70.883 172.869C71.2003 172.939 71.4453 173.016 71.618 173.1C71.7953 173.184 71.9213 173.286 71.996 173.408C72.0707 173.529 72.108 173.683 72.108 173.87C72.108 174.164 71.9843 174.402 71.737 174.584C71.4897 174.761 71.163 174.85 70.757 174.85ZM74.1203 174.85C73.9056 174.85 73.7003 174.824 73.5043 174.773C73.3129 174.721 73.1426 174.649 72.9933 174.556C72.9093 174.5 72.8486 174.448 72.8113 174.402C72.7786 174.35 72.7623 174.29 72.7623 174.22C72.7623 174.159 72.7786 174.11 72.8113 174.073C72.8486 174.031 72.8953 174.01 72.9513 174.01C73.0073 174.01 73.0889 174.045 73.1963 174.115C73.3363 174.199 73.4739 174.266 73.6093 174.318C73.7493 174.364 73.9219 174.388 74.1273 174.388C74.3793 174.388 74.5753 174.343 74.7153 174.255C74.8553 174.166 74.9253 174.038 74.9253 173.87C74.9253 173.767 74.8996 173.685 74.8483 173.625C74.7969 173.559 74.7083 173.503 74.5823 173.457C74.4563 173.405 74.2719 173.354 74.0293 173.303C73.6186 173.214 73.3246 173.095 73.1473 172.946C72.9699 172.796 72.8813 172.593 72.8813 172.337C72.8813 172.136 72.9373 171.959 73.0493 171.805C73.1613 171.651 73.3153 171.529 73.5113 171.441C73.7119 171.352 73.9383 171.308 74.1903 171.308C74.3723 171.308 74.5473 171.333 74.7153 171.385C74.8879 171.431 75.0396 171.499 75.1703 171.588C75.3289 171.7 75.4083 171.816 75.4083 171.938C75.4083 171.998 75.3896 172.05 75.3523 172.092C75.3149 172.134 75.2706 172.155 75.2193 172.155C75.1633 172.155 75.0793 172.115 74.9673 172.036C74.8366 171.952 74.7129 171.886 74.5963 171.84C74.4796 171.793 74.3349 171.77 74.1623 171.77C73.9429 171.77 73.7656 171.819 73.6303 171.917C73.4996 172.015 73.4343 172.145 73.4343 172.309C73.4343 172.411 73.4576 172.495 73.5043 172.561C73.5556 172.621 73.6373 172.677 73.7493 172.729C73.8659 172.775 74.0316 172.822 74.2463 172.869C74.5636 172.939 74.8086 173.016 74.9813 173.1C75.1586 173.184 75.2846 173.286 75.3593 173.408C75.4339 173.529 75.4713 173.683 75.4713 173.87C75.4713 174.164 75.3476 174.402 75.1003 174.584C74.8529 174.761 74.5263 174.85 74.1203 174.85ZM80.936 171.504C80.9827 171.392 81.0597 171.336 81.167 171.336C81.237 171.336 81.3 171.359 81.356 171.406C81.412 171.452 81.44 171.511 81.44 171.581C81.44 171.613 81.433 171.648 81.419 171.686L80.257 174.626C80.229 174.686 80.187 174.735 80.131 174.773C80.0797 174.805 80.0214 174.822 79.956 174.822C79.8954 174.822 79.837 174.805 79.781 174.773C79.7297 174.735 79.69 174.686 79.662 174.626L78.696 172.169L77.737 174.626C77.7137 174.686 77.674 174.735 77.618 174.773C77.562 174.805 77.5014 174.822 77.436 174.822C77.3754 174.822 77.317 174.805 77.261 174.773C77.205 174.735 77.163 174.686 77.135 174.626L75.973 171.693C75.959 171.655 75.952 171.623 75.952 171.595C75.952 171.52 75.9824 171.457 76.043 171.406C76.1084 171.354 76.1784 171.329 76.253 171.329C76.365 171.329 76.4444 171.385 76.491 171.497L77.45 174.08L78.437 171.518C78.465 171.457 78.5024 171.41 78.549 171.378C78.6004 171.345 78.654 171.329 78.71 171.329C78.7707 171.329 78.8244 171.345 78.871 171.378C78.9224 171.41 78.9597 171.457 78.983 171.518L79.97 174.073L80.936 171.504ZM83.5396 174.85C83.2176 174.85 82.9329 174.777 82.6856 174.633C82.4429 174.488 82.2539 174.283 82.1186 174.017C81.9879 173.746 81.9226 173.433 81.9226 173.079C81.9226 172.724 81.9879 172.414 82.1186 172.148C82.2539 171.877 82.4429 171.669 82.6856 171.525C82.9329 171.38 83.2176 171.308 83.5396 171.308C83.8616 171.308 84.1463 171.38 84.3936 171.525C84.6409 171.669 84.8299 171.877 84.9606 172.148C85.0959 172.414 85.1636 172.724 85.1636 173.079C85.1636 173.433 85.0959 173.746 84.9606 174.017C84.8299 174.283 84.6409 174.488 84.3936 174.633C84.1463 174.777 83.8616 174.85 83.5396 174.85ZM83.5396 174.381C83.8756 174.381 84.1323 174.271 84.3096 174.052C84.4916 173.828 84.5826 173.503 84.5826 173.079C84.5826 172.663 84.4916 172.344 84.3096 172.12C84.1276 171.891 83.8709 171.777 83.5396 171.777C83.2083 171.777 82.9516 171.891 82.7696 172.12C82.5876 172.344 82.4966 172.663 82.4966 173.079C82.4966 173.499 82.5853 173.821 82.7626 174.045C82.9446 174.269 83.2036 174.381 83.5396 174.381ZM87.6954 171.322C87.8914 171.308 87.9894 171.387 87.9894 171.56C87.9894 171.634 87.9684 171.695 87.9264 171.742C87.8844 171.784 87.8121 171.809 87.7094 171.819L87.4994 171.84C87.1867 171.868 86.9534 171.98 86.7994 172.176C86.6501 172.367 86.5754 172.593 86.5754 172.855V174.556C86.5754 174.649 86.5497 174.719 86.4984 174.766C86.4471 174.812 86.3794 174.836 86.2954 174.836C86.2114 174.836 86.1414 174.812 86.0854 174.766C86.0341 174.714 86.0084 174.644 86.0084 174.556V171.602C86.0084 171.513 86.0364 171.445 86.0924 171.399C86.1484 171.347 86.2161 171.322 86.2954 171.322C86.3701 171.322 86.4331 171.347 86.4844 171.399C86.5357 171.445 86.5614 171.511 86.5614 171.595V171.987C86.6594 171.781 86.7971 171.625 86.9744 171.518C87.1564 171.41 87.3641 171.347 87.5974 171.329L87.6954 171.322ZM91.1448 169.831C91.2335 169.831 91.3035 169.856 91.3548 169.908C91.4061 169.959 91.4318 170.024 91.4318 170.104V174.556C91.4318 174.64 91.4061 174.707 91.3548 174.759C91.3035 174.81 91.2335 174.836 91.1448 174.836C91.0561 174.836 90.9861 174.81 90.9348 174.759C90.8881 174.707 90.8648 174.64 90.8648 174.556V174.178C90.7621 174.392 90.6105 174.558 90.4098 174.675C90.2138 174.791 89.9828 174.85 89.7168 174.85C89.4181 174.85 89.1545 174.775 88.9258 174.626C88.6971 174.476 88.5198 174.269 88.3938 174.003C88.2678 173.732 88.2048 173.419 88.2048 173.065C88.2048 172.715 88.2678 172.407 88.3938 172.141C88.5198 171.875 88.6971 171.669 88.9258 171.525C89.1545 171.38 89.4181 171.308 89.7168 171.308C89.9828 171.308 90.2138 171.366 90.4098 171.483C90.6105 171.599 90.7621 171.765 90.8648 171.98V170.104C90.8648 170.02 90.8881 169.954 90.9348 169.908C90.9861 169.856 91.0561 169.831 91.1448 169.831ZM89.8288 174.381C90.1601 174.381 90.4145 174.269 90.5918 174.045C90.7738 173.816 90.8648 173.494 90.8648 173.079C90.8648 172.663 90.7738 172.344 90.5918 172.12C90.4145 171.896 90.1601 171.784 89.8288 171.784C89.4975 171.784 89.2385 171.896 89.0518 172.12C88.8698 172.344 88.7788 172.659 88.7788 173.065C88.7788 173.48 88.8698 173.804 89.0518 174.038C89.2385 174.266 89.4975 174.381 89.8288 174.381Z" fill="black"/>
<path d="M48.0903 225.355C47.9743 225.355 47.8843 225.323 47.8203 225.259C47.7563 225.195 47.7243 225.107 47.7243 224.995V221.479C47.7243 221.363 47.7583 221.271 47.8263 221.203C47.8983 221.131 47.9923 221.095 48.1083 221.095C48.2283 221.095 48.3223 221.131 48.3903 221.203C48.4623 221.271 48.4983 221.363 48.4983 221.479V224.719H50.1843C50.4243 224.719 50.5443 224.825 50.5443 225.037C50.5443 225.249 50.4243 225.355 50.1843 225.355H48.0903ZM52.3069 225.403C52.0069 225.403 51.7429 225.341 51.5149 225.217C51.2909 225.093 51.1169 224.915 50.9929 224.683C50.8689 224.451 50.8069 224.181 50.8069 223.873C50.8069 223.565 50.8689 223.297 50.9929 223.069C51.1169 222.837 51.2909 222.659 51.5149 222.535C51.7429 222.411 52.0069 222.349 52.3069 222.349C52.6069 222.349 52.8689 222.411 53.0929 222.535C53.3209 222.659 53.4949 222.837 53.6149 223.069C53.7389 223.297 53.8009 223.565 53.8009 223.873C53.8009 224.181 53.7389 224.451 53.6149 224.683C53.4949 224.915 53.3209 225.093 53.0929 225.217C52.8689 225.341 52.6069 225.403 52.3069 225.403ZM52.3009 224.821C52.5449 224.821 52.7309 224.741 52.8589 224.581C52.9869 224.421 53.0509 224.185 53.0509 223.873C53.0509 223.565 52.9869 223.331 52.8589 223.171C52.7309 223.007 52.5469 222.925 52.3069 222.925C52.0669 222.925 51.8809 223.007 51.7489 223.171C51.6209 223.331 51.5569 223.565 51.5569 223.873C51.5569 224.185 51.6209 224.421 51.7489 224.581C51.8769 224.741 52.0609 224.821 52.3009 224.821ZM56.904 222.361C57.016 222.361 57.106 222.393 57.174 222.457C57.242 222.521 57.276 222.607 57.276 222.715V225.085C57.276 225.545 57.148 225.893 56.892 226.129C56.636 226.365 56.258 226.483 55.758 226.483C55.322 226.483 54.958 226.401 54.666 226.237C54.518 226.149 54.444 226.043 54.444 225.919C54.444 225.831 54.464 225.761 54.504 225.709C54.548 225.657 54.604 225.631 54.672 225.631C54.708 225.631 54.752 225.639 54.804 225.655C54.856 225.675 54.91 225.697 54.966 225.721C55.11 225.781 55.238 225.827 55.35 225.859C55.466 225.891 55.598 225.907 55.746 225.907C56.27 225.907 56.532 225.651 56.532 225.139V224.755C56.444 224.919 56.316 225.047 56.148 225.139C55.98 225.227 55.788 225.271 55.572 225.271C55.316 225.271 55.088 225.211 54.888 225.091C54.692 224.967 54.538 224.795 54.426 224.575C54.314 224.355 54.258 224.101 54.258 223.813C54.258 223.525 54.312 223.271 54.42 223.051C54.532 222.827 54.688 222.655 54.888 222.535C55.088 222.411 55.316 222.349 55.572 222.349C55.788 222.349 55.98 222.395 56.148 222.487C56.316 222.575 56.444 222.701 56.532 222.865V222.709C56.532 222.605 56.566 222.521 56.634 222.457C56.702 222.393 56.792 222.361 56.904 222.361ZM55.77 224.689C56.01 224.689 56.196 224.611 56.328 224.455C56.464 224.299 56.532 224.085 56.532 223.813C56.532 223.537 56.464 223.321 56.328 223.165C56.196 223.009 56.01 222.931 55.77 222.931C55.534 222.931 55.348 223.009 55.212 223.165C55.076 223.321 55.008 223.537 55.008 223.813C55.008 224.085 55.076 224.299 55.212 224.455C55.348 224.611 55.534 224.689 55.77 224.689ZM58.5028 225.391C58.3868 225.391 58.2928 225.355 58.2208 225.283C58.1528 225.211 58.1188 225.117 58.1188 225.001V221.479C58.1188 221.363 58.1528 221.271 58.2208 221.203C58.2928 221.131 58.3868 221.095 58.5028 221.095C58.6228 221.095 58.7168 221.131 58.7848 221.203C58.8568 221.271 58.8928 221.363 58.8928 221.479V225.001C58.8928 225.117 58.8568 225.211 58.7848 225.283C58.7168 225.355 58.6228 225.391 58.5028 225.391ZM61.4443 222.349C61.7963 222.349 62.0583 222.449 62.2303 222.649C62.4023 222.849 62.4883 223.151 62.4883 223.555V225.031C62.4883 225.143 62.4543 225.231 62.3863 225.295C62.3223 225.359 62.2323 225.391 62.1163 225.391C62.0003 225.391 61.9083 225.359 61.8403 225.295C61.7723 225.231 61.7383 225.143 61.7383 225.031V223.597C61.7383 223.369 61.6943 223.203 61.6063 223.099C61.5223 222.995 61.3883 222.943 61.2043 222.943C60.9883 222.943 60.8143 223.011 60.6823 223.147C60.5543 223.283 60.4903 223.465 60.4903 223.693V225.031C60.4903 225.143 60.4563 225.231 60.3883 225.295C60.3203 225.359 60.2283 225.391 60.1123 225.391C59.9963 225.391 59.9043 225.359 59.8363 225.295C59.7723 225.231 59.7403 225.143 59.7403 225.031V222.709C59.7403 222.605 59.7743 222.521 59.8423 222.457C59.9103 222.393 60.0023 222.361 60.1183 222.361C60.2223 222.361 60.3063 222.393 60.3703 222.457C60.4383 222.517 60.4723 222.597 60.4723 222.697V222.859C60.5723 222.695 60.7063 222.569 60.8743 222.481C61.0423 222.393 61.2323 222.349 61.4443 222.349Z" fill="white"/>
<path d="M48.0052 151.356C48.1119 151.349 48.1952 151.376 48.2552 151.436C48.3219 151.496 48.3552 151.569 48.3552 151.656C48.3552 151.736 48.3219 151.809 48.2552 151.876C48.1952 151.936 48.1119 151.963 48.0052 151.956L46.8152 151.916L47.4452 152.926C47.4852 152.993 47.5052 153.056 47.5052 153.116C47.5052 153.196 47.4719 153.266 47.4052 153.326C47.3452 153.379 47.2752 153.406 47.1952 153.406C47.0819 153.406 46.9919 153.346 46.9252 153.226L46.3652 152.166L45.8052 153.236C45.7386 153.356 45.6486 153.416 45.5352 153.416C45.4552 153.416 45.3819 153.386 45.3152 153.326C45.2486 153.266 45.2152 153.196 45.2152 153.116C45.2152 153.056 45.2352 152.996 45.2752 152.936L45.9252 151.916L44.7152 151.956C44.6152 151.963 44.5352 151.936 44.4752 151.876C44.4152 151.809 44.3852 151.736 44.3852 151.656C44.3852 151.569 44.4119 151.496 44.4652 151.436C44.5252 151.376 44.6086 151.349 44.7152 151.356L45.9252 151.396L45.2752 150.386C45.2352 150.326 45.2152 150.263 45.2152 150.196C45.2152 150.116 45.2486 150.046 45.3152 149.986C45.3819 149.926 45.4552 149.896 45.5352 149.896C45.6486 149.896 45.7386 149.956 45.8052 150.076L46.3652 151.146L46.9252 150.086C46.9919 149.959 47.0852 149.896 47.2052 149.896C47.2852 149.896 47.3552 149.926 47.4152 149.986C47.4752 150.039 47.5052 150.106 47.5052 150.186C47.5052 150.246 47.4852 150.313 47.4452 150.386L46.8152 151.396L48.0052 151.356ZM55.8072 151.356C55.9139 151.349 55.9972 151.376 56.0572 151.436C56.1239 151.496 56.1572 151.569 56.1572 151.656C56.1572 151.736 56.1239 151.809 56.0572 151.876C55.9972 151.936 55.9139 151.963 55.8072 151.956L54.6172 151.916L55.2472 152.926C55.2872 152.993 55.3072 153.056 55.3072 153.116C55.3072 153.196 55.2739 153.266 55.2072 153.326C55.1472 153.379 55.0772 153.406 54.9972 153.406C54.8839 153.406 54.7939 153.346 54.7272 153.226L54.1672 152.166L53.6072 153.236C53.5405 153.356 53.4505 153.416 53.3372 153.416C53.2572 153.416 53.1839 153.386 53.1172 153.326C53.0505 153.266 53.0172 153.196 53.0172 153.116C53.0172 153.056 53.0372 152.996 53.0772 152.936L53.7272 151.916L52.5172 151.956C52.4172 151.963 52.3372 151.936 52.2772 151.876C52.2172 151.809 52.1872 151.736 52.1872 151.656C52.1872 151.569 52.2139 151.496 52.2672 151.436C52.3272 151.376 52.4105 151.349 52.5172 151.356L53.7272 151.396L53.0772 150.386C53.0372 150.326 53.0172 150.263 53.0172 150.196C53.0172 150.116 53.0505 150.046 53.1172 149.986C53.1839 149.926 53.2572 149.896 53.3372 149.896C53.4505 149.896 53.5405 149.956 53.6072 150.076L54.1672 151.146L54.7272 150.086C54.7939 149.959 54.8872 149.896 55.0072 149.896C55.0872 149.896 55.1572 149.926 55.2172 149.986C55.2772 150.039 55.3072 150.106 55.3072 150.186C55.3072 150.246 55.2872 150.313 55.2472 150.386L54.6172 151.396L55.8072 151.356ZM63.6091 151.356C63.7158 151.349 63.7991 151.376 63.8591 151.436C63.9258 151.496 63.9591 151.569 63.9591 151.656C63.9591 151.736 63.9258 151.809 63.8591 151.876C63.7991 151.936 63.7158 151.963 63.6091 151.956L62.4191 151.916L63.0491 152.926C63.0891 152.993 63.1091 153.056 63.1091 153.116C63.1091 153.196 63.0758 153.266 63.0091 153.326C62.9491 153.379 62.8791 153.406 62.7991 153.406C62.6858 153.406 62.5958 153.346 62.5291 153.226L61.9691 152.166L61.4091 153.236C61.3425 153.356 61.2525 153.416 61.1391 153.416C61.0591 153.416 60.9858 153.386 60.9191 153.326C60.8525 153.266 60.8191 153.196 60.8191 153.116C60.8191 153.056 60.8391 152.996 60.8791 152.936L61.5291 151.916L60.3191 151.956C60.2191 151.963 60.1391 151.936 60.0791 151.876C60.0191 151.809 59.9891 151.736 59.9891 151.656C59.9891 151.569 60.0158 151.496 60.0691 151.436C60.1291 151.376 60.2125 151.349 60.3191 151.356L61.5291 151.396L60.8791 150.386C60.8391 150.326 60.8191 150.263 60.8191 150.196C60.8191 150.116 60.8525 150.046 60.9191 149.986C60.9858 149.926 61.0591 149.896 61.1391 149.896C61.2525 149.896 61.3425 149.956 61.4091 150.076L61.9691 151.146L62.5291 150.086C62.5958 149.959 62.6891 149.896 62.8091 149.896C62.8891 149.896 62.9591 149.926 63.0191 149.986C63.0791 150.039 63.1091 150.106 63.1091 150.186C63.1091 150.246 63.0891 150.313 63.0491 150.386L62.4191 151.396L63.6091 151.356ZM71.4111 151.356C71.5178 151.349 71.6011 151.376 71.6611 151.436C71.7278 151.496 71.7611 151.569 71.7611 151.656C71.7611 151.736 71.7278 151.809 71.6611 151.876C71.6011 151.936 71.5178 151.963 71.4111 151.956L70.2211 151.916L70.8511 152.926C70.8911 152.993 70.9111 153.056 70.9111 153.116C70.9111 153.196 70.8778 153.266 70.8111 153.326C70.7511 153.379 70.6811 153.406 70.6011 153.406C70.4878 153.406 70.3978 153.346 70.3311 153.226L69.7711 152.166L69.2111 153.236C69.1444 153.356 69.0544 153.416 68.9411 153.416C68.8611 153.416 68.7878 153.386 68.7211 153.326C68.6544 153.266 68.6211 153.196 68.6211 153.116C68.6211 153.056 68.6411 152.996 68.6811 152.936L69.3311 151.916L68.1211 151.956C68.0211 151.963 67.9411 151.936 67.8811 151.876C67.8211 151.809 67.7911 151.736 67.7911 151.656C67.7911 151.569 67.8178 151.496 67.8711 151.436C67.9311 151.376 68.0144 151.349 68.1211 151.356L69.3311 151.396L68.6811 150.386C68.6411 150.326 68.6211 150.263 68.6211 150.196C68.6211 150.116 68.6544 150.046 68.7211 149.986C68.7878 149.926 68.8611 149.896 68.9411 149.896C69.0544 149.896 69.1444 149.956 69.2111 150.076L69.7711 151.146L70.3311 150.086C70.3978 149.959 70.4911 149.896 70.6111 149.896C70.6911 149.896 70.7611 149.926 70.8211 149.986C70.8811 150.039 70.9111 150.106 70.9111 150.186C70.9111 150.246 70.8911 150.313 70.8511 150.386L70.2211 151.396L71.4111 151.356ZM79.213 151.356C79.3197 151.349 79.403 151.376 79.463 151.436C79.5297 151.496 79.563 151.569 79.563 151.656C79.563 151.736 79.5297 151.809 79.463 151.876C79.403 151.936 79.3197 151.963 79.213 151.956L78.023 151.916L78.653 152.926C78.693 152.993 78.713 153.056 78.713 153.116C78.713 153.196 78.6797 153.266 78.613 153.326C78.553 153.379 78.483 153.406 78.403 153.406C78.2897 153.406 78.1997 153.346 78.133 153.226L77.573 152.166L77.013 153.236C76.9464 153.356 76.8564 153.416 76.743 153.416C76.663 153.416 76.5897 153.386 76.523 153.326C76.4564 153.266 76.423 153.196 76.423 153.116C76.423 153.056 76.443 152.996 76.483 152.936L77.133 151.916L75.923 151.956C75.823 151.963 75.743 151.936 75.683 151.876C75.623 151.809 75.593 151.736 75.593 151.656C75.593 151.569 75.6197 151.496 75.673 151.436C75.733 151.376 75.8164 151.349 75.923 151.356L77.133 151.396L76.483 150.386C76.443 150.326 76.423 150.263 76.423 150.196C76.423 150.116 76.4564 150.046 76.523 149.986C76.5897 149.926 76.663 149.896 76.743 149.896C76.8564 149.896 76.9464 149.956 77.013 150.076L77.573 151.146L78.133 150.086C78.1997 149.959 78.293 149.896 78.413 149.896C78.493 149.896 78.563 149.926 78.623 149.986C78.683 150.039 78.713 150.106 78.713 150.186C78.713 150.246 78.693 150.313 78.653 150.386L78.023 151.396L79.213 151.356ZM87.015 151.356C87.1217 151.349 87.205 151.376 87.265 151.436C87.3317 151.496 87.365 151.569 87.365 151.656C87.365 151.736 87.3317 151.809 87.265 151.876C87.205 151.936 87.1217 151.963 87.015 151.956L85.825 151.916L86.455 152.926C86.495 152.993 86.515 153.056 86.515 153.116C86.515 153.196 86.4817 153.266 86.415 153.326C86.355 153.379 86.285 153.406 86.205 153.406C86.0917 153.406 86.0017 153.346 85.935 153.226L85.375 152.166L84.815 153.236C84.7483 153.356 84.6583 153.416 84.545 153.416C84.465 153.416 84.3917 153.386 84.325 153.326C84.2583 153.266 84.225 153.196 84.225 153.116C84.225 153.056 84.245 152.996 84.285 152.936L84.935 151.916L83.725 151.956C83.625 151.963 83.545 151.936 83.485 151.876C83.425 151.809 83.395 151.736 83.395 151.656C83.395 151.569 83.4217 151.496 83.475 151.436C83.535 151.376 83.6183 151.349 83.725 151.356L84.935 151.396L84.285 150.386C84.245 150.326 84.225 150.263 84.225 150.196C84.225 150.116 84.2583 150.046 84.325 149.986C84.3917 149.926 84.465 149.896 84.545 149.896C84.6583 149.896 84.7483 149.956 84.815 150.076L85.375 151.146L85.935 150.086C86.0017 149.959 86.095 149.896 86.215 149.896C86.295 149.896 86.365 149.926 86.425 149.986C86.485 150.039 86.515 150.106 86.515 150.186C86.515 150.246 86.495 150.313 86.455 150.386L85.825 151.396L87.015 151.356ZM94.817 151.356C94.9236 151.349 95.007 151.376 95.067 151.436C95.1336 151.496 95.167 151.569 95.167 151.656C95.167 151.736 95.1336 151.809 95.067 151.876C95.007 151.936 94.9236 151.963 94.817 151.956L93.627 151.916L94.257 152.926C94.297 152.993 94.317 153.056 94.317 153.116C94.317 153.196 94.2836 153.266 94.217 153.326C94.157 153.379 94.087 153.406 94.007 153.406C93.8936 153.406 93.8036 153.346 93.737 153.226L93.177 152.166L92.617 153.236C92.5503 153.356 92.4603 153.416 92.347 153.416C92.267 153.416 92.1936 153.386 92.127 153.326C92.0603 153.266 92.027 153.196 92.027 153.116C92.027 153.056 92.047 152.996 92.087 152.936L92.737 151.916L91.527 151.956C91.427 151.963 91.347 151.936 91.287 151.876C91.227 151.809 91.197 151.736 91.197 151.656C91.197 151.569 91.2236 151.496 91.277 151.436C91.337 151.376 91.4203 151.349 91.527 151.356L92.737 151.396L92.087 150.386C92.047 150.326 92.027 150.263 92.027 150.196C92.027 150.116 92.0603 150.046 92.127 149.986C92.1936 149.926 92.267 149.896 92.347 149.896C92.4603 149.896 92.5503 149.956 92.617 150.076L93.177 151.146L93.737 150.086C93.8036 149.959 93.897 149.896 94.017 149.896C94.097 149.896 94.167 149.926 94.227 149.986C94.287 150.039 94.317 150.106 94.317 150.186C94.317 150.246 94.297 150.313 94.257 150.386L93.627 151.396L94.817 151.356ZM102.619 151.356C102.726 151.349 102.809 151.376 102.869 151.436C102.936 151.496 102.969 151.569 102.969 151.656C102.969 151.736 102.936 151.809 102.869 151.876C102.809 151.936 102.726 151.963 102.619 151.956L101.429 151.916L102.059 152.926C102.099 152.993 102.119 153.056 102.119 153.116C102.119 153.196 102.086 153.266 102.019 153.326C101.959 153.379 101.889 153.406 101.809 153.406C101.696 153.406 101.606 153.346 101.539 153.226L100.979 152.166L100.419 153.236C100.352 153.356 100.262 153.416 100.149 153.416C100.069 153.416 99.9956 153.386 99.9289 153.326C99.8622 153.266 99.8289 153.196 99.8289 153.116C99.8289 153.056 99.8489 152.996 99.8889 152.936L100.539 151.916L99.3289 151.956C99.2289 151.963 99.1489 151.936 99.0889 151.876C99.0289 151.809 98.9989 151.736 98.9989 151.656C98.9989 151.569 99.0256 151.496 99.0789 151.436C99.1389 151.376 99.2222 151.349 99.3289 151.356L100.539 151.396L99.8889 150.386C99.8489 150.326 99.8289 150.263 99.8289 150.196C99.8289 150.116 99.8622 150.046 99.9289 149.986C99.9956 149.926 100.069 149.896 100.149 149.896C100.262 149.896 100.352 149.956 100.419 150.076L100.979 151.146L101.539 150.086C101.606 149.959 101.699 149.896 101.819 149.896C101.899 149.896 101.969 149.926 102.029 149.986C102.089 150.039 102.119 150.106 102.119 150.186C102.119 150.246 102.099 150.313 102.059 150.386L101.429 151.396L102.619 151.356ZM110.421 151.356C110.528 151.349 110.611 151.376 110.671 151.436C110.738 151.496 110.771 151.569 110.771 151.656C110.771 151.736 110.738 151.809 110.671 151.876C110.611 151.936 110.528 151.963 110.421 151.956L109.231 151.916L109.861 152.926C109.901 152.993 109.921 153.056 109.921 153.116C109.921 153.196 109.888 153.266 109.821 153.326C109.761 153.379 109.691 153.406 109.611 153.406C109.498 153.406 109.408 153.346 109.341 153.226L108.781 152.166L108.221 153.236C108.154 153.356 108.064 153.416 107.951 153.416C107.871 153.416 107.798 153.386 107.731 153.326C107.664 153.266 107.631 153.196 107.631 153.116C107.631 153.056 107.651 152.996 107.691 152.936L108.341 151.916L107.131 151.956C107.031 151.963 106.951 151.936 106.891 151.876C106.831 151.809 106.801 151.736 106.801 151.656C106.801 151.569 106.828 151.496 106.881 151.436C106.941 151.376 107.024 151.349 107.131 151.356L108.341 151.396L107.691 150.386C107.651 150.326 107.631 150.263 107.631 150.196C107.631 150.116 107.664 150.046 107.731 149.986C107.798 149.926 107.871 149.896 107.951 149.896C108.064 149.896 108.154 149.956 108.221 150.076L108.781 151.146L109.341 150.086C109.408 149.959 109.501 149.896 109.621 149.896C109.701 149.896 109.771 149.926 109.831 149.986C109.891 150.039 109.921 150.106 109.921 150.186C109.921 150.246 109.901 150.313 109.861 150.386L109.231 151.396L110.421 151.356ZM118.223 151.356C118.329 151.349 118.413 151.376 118.473 151.436C118.539 151.496 118.573 151.569 118.573 151.656C118.573 151.736 118.539 151.809 118.473 151.876C118.413 151.936 118.329 151.963 118.223 151.956L117.033 151.916L117.663 152.926C117.703 152.993 117.723 153.056 117.723 153.116C117.723 153.196 117.689 153.266 117.623 153.326C117.563 153.379 117.493 153.406 117.413 153.406C117.299 153.406 117.209 153.346 117.143 153.226L116.583 152.166L116.023 153.236C115.956 153.356 115.866 153.416 115.753 153.416C115.673 153.416 115.599 153.386 115.533 153.326C115.466 153.266 115.433 153.196 115.433 153.116C115.433 153.056 115.453 152.996 115.493 152.936L116.143 151.916L114.933 151.956C114.833 151.963 114.753 151.936 114.693 151.876C114.633 151.809 114.603 151.736 114.603 151.656C114.603 151.569 114.629 151.496 114.683 151.436C114.743 151.376 114.826 151.349 114.933 151.356L116.143 151.396L115.493 150.386C115.453 150.326 115.433 150.263 115.433 150.196C115.433 150.116 115.466 150.046 115.533 149.986C115.599 149.926 115.673 149.896 115.753 149.896C115.866 149.896 115.956 149.956 116.023 150.076L116.583 151.146L117.143 150.086C117.209 149.959 117.303 149.896 117.423 149.896C117.503 149.896 117.573 149.926 117.633 149.986C117.693 150.039 117.723 150.106 117.723 150.186C117.723 150.246 117.703 150.313 117.663 150.386L117.033 151.396L118.223 151.356Z" fill="#5236FF"/>
<path d="M48.0052 192.962C48.1119 192.955 48.1952 192.982 48.2552 193.042C48.3219 193.102 48.3552 193.175 48.3552 193.262C48.3552 193.342 48.3219 193.415 48.2552 193.482C48.1952 193.542 48.1119 193.568 48.0052 193.562L46.8152 193.522L47.4452 194.532C47.4852 194.598 47.5052 194.662 47.5052 194.722C47.5052 194.802 47.4719 194.872 47.4052 194.932C47.3452 194.985 47.2752 195.012 47.1952 195.012C47.0819 195.012 46.9919 194.952 46.9252 194.832L46.3652 193.772L45.8052 194.842C45.7386 194.962 45.6486 195.022 45.5352 195.022C45.4552 195.022 45.3819 194.992 45.3152 194.932C45.2486 194.872 45.2152 194.802 45.2152 194.722C45.2152 194.662 45.2352 194.602 45.2752 194.542L45.9252 193.522L44.7152 193.562C44.6152 193.568 44.5352 193.542 44.4752 193.482C44.4152 193.415 44.3852 193.342 44.3852 193.262C44.3852 193.175 44.4119 193.102 44.4652 193.042C44.5252 192.982 44.6086 192.955 44.7152 192.962L45.9252 193.002L45.2752 191.992C45.2352 191.932 45.2152 191.868 45.2152 191.802C45.2152 191.722 45.2486 191.652 45.3152 191.592C45.3819 191.532 45.4552 191.502 45.5352 191.502C45.6486 191.502 45.7386 191.562 45.8052 191.682L46.3652 192.752L46.9252 191.692C46.9919 191.565 47.0852 191.502 47.2052 191.502C47.2852 191.502 47.3552 191.532 47.4152 191.592C47.4752 191.645 47.5052 191.712 47.5052 191.792C47.5052 191.852 47.4852 191.918 47.4452 191.992L46.8152 193.002L48.0052 192.962ZM55.8072 192.962C55.9139 192.955 55.9972 192.982 56.0572 193.042C56.1239 193.102 56.1572 193.175 56.1572 193.262C56.1572 193.342 56.1239 193.415 56.0572 193.482C55.9972 193.542 55.9139 193.568 55.8072 193.562L54.6172 193.522L55.2472 194.532C55.2872 194.598 55.3072 194.662 55.3072 194.722C55.3072 194.802 55.2739 194.872 55.2072 194.932C55.1472 194.985 55.0772 195.012 54.9972 195.012C54.8839 195.012 54.7939 194.952 54.7272 194.832L54.1672 193.772L53.6072 194.842C53.5405 194.962 53.4505 195.022 53.3372 195.022C53.2572 195.022 53.1839 194.992 53.1172 194.932C53.0505 194.872 53.0172 194.802 53.0172 194.722C53.0172 194.662 53.0372 194.602 53.0772 194.542L53.7272 193.522L52.5172 193.562C52.4172 193.568 52.3372 193.542 52.2772 193.482C52.2172 193.415 52.1872 193.342 52.1872 193.262C52.1872 193.175 52.2139 193.102 52.2672 193.042C52.3272 192.982 52.4105 192.955 52.5172 192.962L53.7272 193.002L53.0772 191.992C53.0372 191.932 53.0172 191.868 53.0172 191.802C53.0172 191.722 53.0505 191.652 53.1172 191.592C53.1839 191.532 53.2572 191.502 53.3372 191.502C53.4505 191.502 53.5405 191.562 53.6072 191.682L54.1672 192.752L54.7272 191.692C54.7939 191.565 54.8872 191.502 55.0072 191.502C55.0872 191.502 55.1572 191.532 55.2172 191.592C55.2772 191.645 55.3072 191.712 55.3072 191.792C55.3072 191.852 55.2872 191.918 55.2472 191.992L54.6172 193.002L55.8072 192.962ZM63.6091 192.962C63.7158 192.955 63.7991 192.982 63.8591 193.042C63.9258 193.102 63.9591 193.175 63.9591 193.262C63.9591 193.342 63.9258 193.415 63.8591 193.482C63.7991 193.542 63.7158 193.568 63.6091 193.562L62.4191 193.522L63.0491 194.532C63.0891 194.598 63.1091 194.662 63.1091 194.722C63.1091 194.802 63.0758 194.872 63.0091 194.932C62.9491 194.985 62.8791 195.012 62.7991 195.012C62.6858 195.012 62.5958 194.952 62.5291 194.832L61.9691 193.772L61.4091 194.842C61.3425 194.962 61.2525 195.022 61.1391 195.022C61.0591 195.022 60.9858 194.992 60.9191 194.932C60.8525 194.872 60.8191 194.802 60.8191 194.722C60.8191 194.662 60.8391 194.602 60.8791 194.542L61.5291 193.522L60.3191 193.562C60.2191 193.568 60.1391 193.542 60.0791 193.482C60.0191 193.415 59.9891 193.342 59.9891 193.262C59.9891 193.175 60.0158 193.102 60.0691 193.042C60.1291 192.982 60.2125 192.955 60.3191 192.962L61.5291 193.002L60.8791 191.992C60.8391 191.932 60.8191 191.868 60.8191 191.802C60.8191 191.722 60.8525 191.652 60.9191 191.592C60.9858 191.532 61.0591 191.502 61.1391 191.502C61.2525 191.502 61.3425 191.562 61.4091 191.682L61.9691 192.752L62.5291 191.692C62.5958 191.565 62.6891 191.502 62.8091 191.502C62.8891 191.502 62.9591 191.532 63.0191 191.592C63.0791 191.645 63.1091 191.712 63.1091 191.792C63.1091 191.852 63.0891 191.918 63.0491 191.992L62.4191 193.002L63.6091 192.962ZM71.4111 192.962C71.5178 192.955 71.6011 192.982 71.6611 193.042C71.7278 193.102 71.7611 193.175 71.7611 193.262C71.7611 193.342 71.7278 193.415 71.6611 193.482C71.6011 193.542 71.5178 193.568 71.4111 193.562L70.2211 193.522L70.8511 194.532C70.8911 194.598 70.9111 194.662 70.9111 194.722C70.9111 194.802 70.8778 194.872 70.8111 194.932C70.7511 194.985 70.6811 195.012 70.6011 195.012C70.4878 195.012 70.3978 194.952 70.3311 194.832L69.7711 193.772L69.2111 194.842C69.1444 194.962 69.0544 195.022 68.9411 195.022C68.8611 195.022 68.7878 194.992 68.7211 194.932C68.6544 194.872 68.6211 194.802 68.6211 194.722C68.6211 194.662 68.6411 194.602 68.6811 194.542L69.3311 193.522L68.1211 193.562C68.0211 193.568 67.9411 193.542 67.8811 193.482C67.8211 193.415 67.7911 193.342 67.7911 193.262C67.7911 193.175 67.8178 193.102 67.8711 193.042C67.9311 192.982 68.0144 192.955 68.1211 192.962L69.3311 193.002L68.6811 191.992C68.6411 191.932 68.6211 191.868 68.6211 191.802C68.6211 191.722 68.6544 191.652 68.7211 191.592C68.7878 191.532 68.8611 191.502 68.9411 191.502C69.0544 191.502 69.1444 191.562 69.2111 191.682L69.7711 192.752L70.3311 191.692C70.3978 191.565 70.4911 191.502 70.6111 191.502C70.6911 191.502 70.7611 191.532 70.8211 191.592C70.8811 191.645 70.9111 191.712 70.9111 191.792C70.9111 191.852 70.8911 191.918 70.8511 191.992L70.2211 193.002L71.4111 192.962ZM79.213 192.962C79.3197 192.955 79.403 192.982 79.463 193.042C79.5297 193.102 79.563 193.175 79.563 193.262C79.563 193.342 79.5297 193.415 79.463 193.482C79.403 193.542 79.3197 193.568 79.213 193.562L78.023 193.522L78.653 194.532C78.693 194.598 78.713 194.662 78.713 194.722C78.713 194.802 78.6797 194.872 78.613 194.932C78.553 194.985 78.483 195.012 78.403 195.012C78.2897 195.012 78.1997 194.952 78.133 194.832L77.573 193.772L77.013 194.842C76.9464 194.962 76.8564 195.022 76.743 195.022C76.663 195.022 76.5897 194.992 76.523 194.932C76.4564 194.872 76.423 194.802 76.423 194.722C76.423 194.662 76.443 194.602 76.483 194.542L77.133 193.522L75.923 193.562C75.823 193.568 75.743 193.542 75.683 193.482C75.623 193.415 75.593 193.342 75.593 193.262C75.593 193.175 75.6197 193.102 75.673 193.042C75.733 192.982 75.8164 192.955 75.923 192.962L77.133 193.002L76.483 191.992C76.443 191.932 76.423 191.868 76.423 191.802C76.423 191.722 76.4564 191.652 76.523 191.592C76.5897 191.532 76.663 191.502 76.743 191.502C76.8564 191.502 76.9464 191.562 77.013 191.682L77.573 192.752L78.133 191.692C78.1997 191.565 78.293 191.502 78.413 191.502C78.493 191.502 78.563 191.532 78.623 191.592C78.683 191.645 78.713 191.712 78.713 191.792C78.713 191.852 78.693 191.918 78.653 191.992L78.023 193.002L79.213 192.962ZM87.015 192.962C87.1217 192.955 87.205 192.982 87.265 193.042C87.3317 193.102 87.365 193.175 87.365 193.262C87.365 193.342 87.3317 193.415 87.265 193.482C87.205 193.542 87.1217 193.568 87.015 193.562L85.825 193.522L86.455 194.532C86.495 194.598 86.515 194.662 86.515 194.722C86.515 194.802 86.4817 194.872 86.415 194.932C86.355 194.985 86.285 195.012 86.205 195.012C86.0917 195.012 86.0017 194.952 85.935 194.832L85.375 193.772L84.815 194.842C84.7483 194.962 84.6583 195.022 84.545 195.022C84.465 195.022 84.3917 194.992 84.325 194.932C84.2583 194.872 84.225 194.802 84.225 194.722C84.225 194.662 84.245 194.602 84.285 194.542L84.935 193.522L83.725 193.562C83.625 193.568 83.545 193.542 83.485 193.482C83.425 193.415 83.395 193.342 83.395 193.262C83.395 193.175 83.4217 193.102 83.475 193.042C83.535 192.982 83.6183 192.955 83.725 192.962L84.935 193.002L84.285 191.992C84.245 191.932 84.225 191.868 84.225 191.802C84.225 191.722 84.2583 191.652 84.325 191.592C84.3917 191.532 84.465 191.502 84.545 191.502C84.6583 191.502 84.7483 191.562 84.815 191.682L85.375 192.752L85.935 191.692C86.0017 191.565 86.095 191.502 86.215 191.502C86.295 191.502 86.365 191.532 86.425 191.592C86.485 191.645 86.515 191.712 86.515 191.792C86.515 191.852 86.495 191.918 86.455 191.992L85.825 193.002L87.015 192.962ZM94.817 192.962C94.9236 192.955 95.007 192.982 95.067 193.042C95.1336 193.102 95.167 193.175 95.167 193.262C95.167 193.342 95.1336 193.415 95.067 193.482C95.007 193.542 94.9236 193.568 94.817 193.562L93.627 193.522L94.257 194.532C94.297 194.598 94.317 194.662 94.317 194.722C94.317 194.802 94.2836 194.872 94.217 194.932C94.157 194.985 94.087 195.012 94.007 195.012C93.8936 195.012 93.8036 194.952 93.737 194.832L93.177 193.772L92.617 194.842C92.5503 194.962 92.4603 195.022 92.347 195.022C92.267 195.022 92.1936 194.992 92.127 194.932C92.0603 194.872 92.027 194.802 92.027 194.722C92.027 194.662 92.047 194.602 92.087 194.542L92.737 193.522L91.527 193.562C91.427 193.568 91.347 193.542 91.287 193.482C91.227 193.415 91.197 193.342 91.197 193.262C91.197 193.175 91.2236 193.102 91.277 193.042C91.337 192.982 91.4203 192.955 91.527 192.962L92.737 193.002L92.087 191.992C92.047 191.932 92.027 191.868 92.027 191.802C92.027 191.722 92.0603 191.652 92.127 191.592C92.1936 191.532 92.267 191.502 92.347 191.502C92.4603 191.502 92.5503 191.562 92.617 191.682L93.177 192.752L93.737 191.692C93.8036 191.565 93.897 191.502 94.017 191.502C94.097 191.502 94.167 191.532 94.227 191.592C94.287 191.645 94.317 191.712 94.317 191.792C94.317 191.852 94.297 191.918 94.257 191.992L93.627 193.002L94.817 192.962ZM102.619 192.962C102.726 192.955 102.809 192.982 102.869 193.042C102.936 193.102 102.969 193.175 102.969 193.262C102.969 193.342 102.936 193.415 102.869 193.482C102.809 193.542 102.726 193.568 102.619 193.562L101.429 193.522L102.059 194.532C102.099 194.598 102.119 194.662 102.119 194.722C102.119 194.802 102.086 194.872 102.019 194.932C101.959 194.985 101.889 195.012 101.809 195.012C101.696 195.012 101.606 194.952 101.539 194.832L100.979 193.772L100.419 194.842C100.352 194.962 100.262 195.022 100.149 195.022C100.069 195.022 99.9956 194.992 99.9289 194.932C99.8622 194.872 99.8289 194.802 99.8289 194.722C99.8289 194.662 99.8489 194.602 99.8889 194.542L100.539 193.522L99.3289 193.562C99.2289 193.568 99.1489 193.542 99.0889 193.482C99.0289 193.415 98.9989 193.342 98.9989 193.262C98.9989 193.175 99.0256 193.102 99.0789 193.042C99.1389 192.982 99.2222 192.955 99.3289 192.962L100.539 193.002L99.8889 191.992C99.8489 191.932 99.8289 191.868 99.8289 191.802C99.8289 191.722 99.8622 191.652 99.9289 191.592C99.9956 191.532 100.069 191.502 100.149 191.502C100.262 191.502 100.352 191.562 100.419 191.682L100.979 192.752L101.539 191.692C101.606 191.565 101.699 191.502 101.819 191.502C101.899 191.502 101.969 191.532 102.029 191.592C102.089 191.645 102.119 191.712 102.119 191.792C102.119 191.852 102.099 191.918 102.059 191.992L101.429 193.002L102.619 192.962ZM110.421 192.962C110.528 192.955 110.611 192.982 110.671 193.042C110.738 193.102 110.771 193.175 110.771 193.262C110.771 193.342 110.738 193.415 110.671 193.482C110.611 193.542 110.528 193.568 110.421 193.562L109.231 193.522L109.861 194.532C109.901 194.598 109.921 194.662 109.921 194.722C109.921 194.802 109.888 194.872 109.821 194.932C109.761 194.985 109.691 195.012 109.611 195.012C109.498 195.012 109.408 194.952 109.341 194.832L108.781 193.772L108.221 194.842C108.154 194.962 108.064 195.022 107.951 195.022C107.871 195.022 107.798 194.992 107.731 194.932C107.664 194.872 107.631 194.802 107.631 194.722C107.631 194.662 107.651 194.602 107.691 194.542L108.341 193.522L107.131 193.562C107.031 193.568 106.951 193.542 106.891 193.482C106.831 193.415 106.801 193.342 106.801 193.262C106.801 193.175 106.828 193.102 106.881 193.042C106.941 192.982 107.024 192.955 107.131 192.962L108.341 193.002L107.691 191.992C107.651 191.932 107.631 191.868 107.631 191.802C107.631 191.722 107.664 191.652 107.731 191.592C107.798 191.532 107.871 191.502 107.951 191.502C108.064 191.502 108.154 191.562 108.221 191.682L108.781 192.752L109.341 191.692C109.408 191.565 109.501 191.502 109.621 191.502C109.701 191.502 109.771 191.532 109.831 191.592C109.891 191.645 109.921 191.712 109.921 191.792C109.921 191.852 109.901 191.918 109.861 191.992L109.231 193.002L110.421 192.962ZM118.223 192.962C118.329 192.955 118.413 192.982 118.473 193.042C118.539 193.102 118.573 193.175 118.573 193.262C118.573 193.342 118.539 193.415 118.473 193.482C118.413 193.542 118.329 193.568 118.223 193.562L117.033 193.522L117.663 194.532C117.703 194.598 117.723 194.662 117.723 194.722C117.723 194.802 117.689 194.872 117.623 194.932C117.563 194.985 117.493 195.012 117.413 195.012C117.299 195.012 117.209 194.952 117.143 194.832L116.583 193.772L116.023 194.842C115.956 194.962 115.866 195.022 115.753 195.022C115.673 195.022 115.599 194.992 115.533 194.932C115.466 194.872 115.433 194.802 115.433 194.722C115.433 194.662 115.453 194.602 115.493 194.542L116.143 193.522L114.933 193.562C114.833 193.568 114.753 193.542 114.693 193.482C114.633 193.415 114.603 193.342 114.603 193.262C114.603 193.175 114.629 193.102 114.683 193.042C114.743 192.982 114.826 192.955 114.933 192.962L116.143 193.002L115.493 191.992C115.453 191.932 115.433 191.868 115.433 191.802C115.433 191.722 115.466 191.652 115.533 191.592C115.599 191.532 115.673 191.502 115.753 191.502C115.866 191.502 115.956 191.562 116.023 191.682L116.583 192.752L117.143 191.692C117.209 191.565 117.303 191.502 117.423 191.502C117.503 191.502 117.573 191.532 117.633 191.592C117.693 191.645 117.723 191.712 117.723 191.792C117.723 191.852 117.703 191.918 117.663 191.992L117.033 193.002L118.223 192.962Z" fill="#5236FF"/>
<g filter="url(#filter1_d_2_6511)">
<rect x="175.508" y="68.2539" width="227.748" height="33.9431" rx="5" fill="#5236FF"/>
</g>
<rect x="269.672" y="82.4883" width="16.4241" height="4.37976" rx="2.18988" fill="white"/>
<rect x="290.477" y="82.4883" width="15.3292" height="4.37976" rx="2.18988" fill="white"/>
<rect x="188.646" y="78.1094" width="13.1393" height="13.1393" rx="5" fill="#7660FC"/>
<rect x="310.186" y="82.4883" width="16.4241" height="4.37976" rx="2.18988" fill="white"/>
<rect x="330.99" y="82.4883" width="16.4241" height="4.37976" rx="2.18988" fill="white"/>
<rect x="351.793" y="82.4883" width="16.4241" height="4.37976" rx="2.18988" fill="white"/>
<rect x="386.832" y="83.582" width="4.37976" height="2.18988" rx="1.09494" fill="white"/>
<defs>
<filter id="filter0_d_2_6511" x="0.742188" y="99.957" width="209.525" height="176.676" filterUnits="userSpaceOnUse" color-interpolation-filters="sRGB">
<feFlood flood-opacity="0" result="BackgroundImageFix"/>
<feColorMatrix in="SourceAlpha" type="matrix" values="0 0 0 0 0 0 0 0 0 0 0 0 0 0 0 0 0 0 127 0" result="hardAlpha"/>
<feOffset dx="5" dy="10"/>
<feGaussianBlur stdDeviation="10.5"/>
<feComposite in2="hardAlpha" operator="out"/>
<feColorMatrix type="matrix" values="0 0 0 0 0.700272 0 0 0 0 0.700272 0 0 0 0 0.700272 0 0 0 0.25 0"/>
<feBlend mode="normal" in2="BackgroundImageFix" result="effect1_dropShadow_2_6511"/>
<feBlend mode="normal" in="SourceGraphic" in2="effect1_dropShadow_2_6511" result="shape"/>
</filter>
<filter id="filter1_d_2_6511" x="174.508" y="68.2539" width="241.748" height="47.9414" filterUnits="userSpaceOnUse" color-interpolation-filters="sRGB">
<feFlood flood-opacity="0" result="BackgroundImageFix"/>
<feColorMatrix in="SourceAlpha" type="matrix" values="0 0 0 0 0 0 0 0 0 0 0 0 0 0 0 0 0 0 127 0" result="hardAlpha"/>
<feOffset dx="6" dy="7"/>
<feGaussianBlur stdDeviation="3.5"/>
<feComposite in2="hardAlpha" operator="out"/>
<feColorMatrix type="matrix" values="0 0 0 0 0.500272 0 0 0 0 0.500272 0 0 0 0 0.500272 0 0 0 0.25 0"/>
<feBlend mode="normal" in2="BackgroundImageFix" result="effect1_dropShadow_2_6511"/>
<feBlend mode="normal" in="SourceGraphic" in2="effect1_dropShadow_2_6511" result="shape"/>
</filter>
</defs>
</svg>
